<svg width="662" height="407" viewBox="0 0 662 407" fill="none" xmlns="http://www.w3.org/2000/svg">
<path d="M573.909 403.732C549.789 388.962 542.729 359.262 542.019 332.222C541.899 327.712 541.119 322.992 543.019 318.912C544.919 314.832 549.759 311.832 553.909 313.482C557.349 314.852 559.039 318.662 561.099 321.762C563.859 325.904 567.735 329.18 572.279 331.212C575.279 332.532 578.839 333.212 581.569 331.492C585.329 329.112 585.459 323.722 585.159 319.242C584.612 310.902 584.059 302.569 583.499 294.242C583.199 289.762 582.909 285.192 584.049 280.852C585.189 276.512 588.049 272.382 592.209 270.932C596.369 269.482 601.819 271.622 602.979 275.932C603.469 277.732 603.209 279.652 603.449 281.502C603.689 283.352 604.669 285.352 606.449 285.772C608.229 286.192 609.989 284.772 611.249 283.412C615.599 278.612 618.379 272.602 620.959 266.622C623.539 260.642 626.029 254.552 629.959 249.362C633.889 244.172 639.429 239.922 645.819 239.172C652.209 238.422 659.289 241.962 661.289 248.172C663.289 254.382 659.999 261.022 656.289 266.372C650.801 274.315 644.192 281.421 636.669 287.472C635.309 288.562 633.849 289.742 633.409 291.472C632.619 294.472 635.619 297.312 638.629 298.112C642.039 299.022 645.629 298.462 649.159 298.662C652.689 298.862 656.549 300.172 658.069 303.392C660.179 307.862 656.639 312.892 653.069 316.262C645.898 323.005 637.621 328.465 628.599 332.402C625.379 333.812 621.969 335.082 619.459 337.552C616.949 340.022 615.579 344.152 617.369 347.212C619.159 350.272 623.369 351.032 626.759 350.212C630.149 349.392 633.149 347.302 636.369 345.862C642.369 343.172 650.369 343.112 654.619 348.192C657.419 351.532 657.949 356.392 656.889 360.642C655.829 364.892 653.389 368.642 650.759 372.122C641.599 384.292 629.529 394.372 615.549 400.182C601.569 405.992 588.419 408.182 573.909 403.802" fill="#F5F5F5"/>
<path d="M579.859 386.402C583.451 371.433 587.898 356.682 593.179 342.222C594.559 338.375 595.922 334.575 597.269 330.822C598.619 327.082 599.959 323.382 601.489 319.822C604.457 313.021 607.796 306.388 611.489 299.952C614.969 293.792 618.489 288.062 621.829 282.742C625.169 277.422 628.399 272.512 631.519 268.172C636.407 261.289 641.838 254.809 647.759 248.792C649.849 246.662 651.519 245.062 652.669 243.992L653.989 242.782C654.134 242.642 654.287 242.512 654.449 242.392C654.449 242.392 654.329 242.552 654.049 242.842L652.789 244.112C651.679 245.222 650.039 246.852 647.989 249.012C642.176 255.103 636.828 261.622 631.989 268.512C628.909 272.862 625.729 277.772 622.409 283.112C619.089 288.452 615.599 294.182 612.149 300.342C608.491 306.76 605.186 313.373 602.249 320.152C600.729 323.672 599.409 327.352 598.059 331.102C596.709 334.852 595.359 338.652 593.979 342.492C588.707 356.921 584.247 371.634 580.619 386.562" fill="#E0E0E0"/>
<path d="M601.719 319.782C601.472 319.175 601.288 318.546 601.169 317.902C600.859 316.682 600.469 314.902 600.019 312.682C599.119 308.262 598.079 302.112 596.959 295.332C595.839 288.552 594.719 282.422 593.759 278.032C593.279 275.832 592.869 274.032 592.579 272.832C592.388 272.203 592.264 271.556 592.209 270.902C592.504 271.488 592.732 272.105 592.889 272.742C593.279 273.942 593.769 275.742 594.319 277.892C595.439 282.272 596.659 288.392 597.779 295.192C598.899 301.992 599.849 307.942 600.599 312.572C600.949 314.662 601.249 316.422 601.489 317.832C601.638 318.471 601.716 319.125 601.719 319.782Z" fill="#E0E0E0"/>
<path d="M658.669 305.552C657.919 305.754 657.153 305.891 656.379 305.962C654.919 306.182 652.789 306.492 650.169 306.962C644.929 307.852 637.729 309.332 629.869 311.312C622.009 313.292 614.959 315.412 609.869 317.092C607.339 317.902 605.309 318.622 603.869 319.092C603.154 319.393 602.41 319.621 601.649 319.772C602.321 319.377 603.027 319.042 603.759 318.772C605.129 318.192 607.139 317.392 609.649 316.502C614.649 314.682 621.709 312.502 629.649 310.502C636.384 308.785 643.203 307.416 650.079 306.402C652.719 306.012 654.859 305.792 656.349 305.672C657.116 305.552 657.894 305.512 658.669 305.552Z" fill="#E0E0E0"/>
<path d="M580.499 385.292C580.326 385.087 580.178 384.862 580.059 384.622C579.759 384.072 579.399 383.402 578.949 382.622C577.949 380.862 576.679 378.272 575.089 375.062C571.919 368.632 567.809 359.612 563.409 349.602C559.009 339.592 554.989 330.532 551.949 324.042L548.349 316.342L547.349 314.252C547.211 314.016 547.113 313.759 547.059 313.492C547.229 313.701 547.373 313.929 547.489 314.172L548.599 316.172C549.599 317.942 550.879 320.522 552.469 323.742C555.639 330.172 559.749 339.192 564.149 349.202C568.549 359.212 572.569 368.262 575.609 374.752L579.229 382.422L580.229 384.522C580.359 384.763 580.451 385.022 580.499 385.292Z" fill="#E0E0E0"/>
<path d="M655.539 356.012C655.31 356.165 655.061 356.286 654.799 356.372L652.619 357.252L644.619 360.402C637.829 363.062 628.509 366.852 618.209 371.042C607.909 375.232 598.529 378.942 591.689 381.462C588.269 382.722 585.489 383.712 583.559 384.362L581.329 385.092C581.074 385.198 580.804 385.265 580.529 385.292C580.761 385.144 581.01 385.023 581.269 384.932L583.449 384.062L591.449 380.912C598.239 378.252 607.569 374.462 617.869 370.272C628.169 366.082 637.539 362.402 644.349 359.852C647.769 358.582 650.549 357.592 652.479 356.942L654.709 356.212C654.974 356.104 655.254 356.036 655.539 356.012Z" fill="#E0E0E0"/>
<path d="M585.889 96.6719C581.769 106.972 575.189 123.622 572.159 131.272C571.733 132.355 571.753 133.564 572.216 134.632C572.679 135.701 573.547 136.542 574.629 136.972L602.769 148.182C603.305 148.396 603.879 148.502 604.456 148.495C605.034 148.487 605.604 148.365 606.135 148.137C606.665 147.908 607.145 147.577 607.547 147.163C607.95 146.749 608.266 146.259 608.479 145.722L622.129 111.402C622.605 110.21 622.841 108.936 622.824 107.653C622.807 106.37 622.538 105.103 622.03 103.925C621.523 102.746 620.789 101.679 619.869 100.784C618.949 99.89 617.861 99.1857 616.669 98.7119L618.669 93.7119L600.249 86.4019L598.349 91.1419H598.279C595.9 90.2768 593.278 90.37 590.966 91.4018C588.654 92.4336 586.834 94.3232 585.889 96.6719Z" fill="#F5F5F5"/>
<path d="M599.999 87.0118L599.089 89.3018L617.249 97.3018L618.429 94.3518L599.999 87.0118Z" fill="#E0E0E0"/>
<path d="M603.692 79.6314L620.87 86.474C621.609 86.7685 622.201 87.3445 622.515 88.0754C622.83 88.8062 622.841 89.6321 622.546 90.3713L620.726 94.9419C620.536 95.4175 620.166 95.7983 619.695 96.0006C619.225 96.2029 618.694 96.2101 618.218 96.0207L599.062 88.3898C598.587 88.2004 598.206 87.8298 598.004 87.3596C597.801 86.8894 597.794 86.3581 597.984 85.8826L599.804 81.3119C600.099 80.5728 600.675 79.9808 601.406 79.6664C602.137 79.3519 602.962 79.3407 603.702 79.6351L603.692 79.6314Z" fill="#EBEBEB"/>
<path d="M600.189 88.8319C600.55 87.235 601.076 85.68 601.759 84.1919C602.291 82.6387 602.981 81.1442 603.819 79.7319C603.458 81.3387 602.932 82.9037 602.249 84.4019C601.726 85.9495 601.036 87.4351 600.189 88.8319Z" fill="#E0E0E0"/>
<path d="M602.619 89.8019C602.981 88.202 603.507 86.6437 604.189 85.1519C604.71 83.5974 605.401 82.1051 606.249 80.7019C605.887 82.3018 605.361 83.8601 604.679 85.3519C604.158 86.9064 603.467 88.3987 602.619 89.8019Z" fill="#E0E0E0"/>
<path d="M605.049 90.7719C605.41 89.1715 605.936 87.6131 606.619 86.1219C607.142 84.5647 607.833 83.0692 608.679 81.6619C608.321 83.2627 607.794 84.8213 607.109 86.3119C606.577 87.8651 605.887 89.3596 605.049 90.7719Z" fill="#E0E0E0"/>
<path d="M607.479 91.7418C607.832 90.1395 608.359 88.5803 609.049 87.0918C609.571 85.5347 610.262 84.0392 611.109 82.6318C610.746 84.2328 610.217 85.7913 609.529 87.2818C609 88.8347 608.313 90.3291 607.479 91.7418Z" fill="#E0E0E0"/>
<path d="M609.909 92.7018C610.265 91.1003 610.792 89.5414 611.479 88.0518C611.989 86.5027 612.659 85.0112 613.479 83.6018C613.123 85.2034 612.597 86.7622 611.909 88.2518C611.4 89.8009 610.729 91.2924 609.909 92.7018Z" fill="#E0E0E0"/>
<path d="M612.349 93.6719C612.712 92.0709 613.241 90.5124 613.929 89.0219C614.458 87.4691 615.145 85.9746 615.979 84.5619C615.626 86.1643 615.1 87.7234 614.409 89.2119C613.887 90.769 613.196 92.2645 612.349 93.6719Z" fill="#E0E0E0"/>
<path d="M614.759 94.6419C615.118 93.041 615.644 91.4824 616.329 89.9919C616.862 88.4386 617.552 86.9441 618.389 85.5319C618.029 87.1322 617.503 88.6907 616.819 90.1819C616.297 91.739 615.606 93.2345 614.759 94.6419Z" fill="#E0E0E0"/>
<path d="M617.189 95.6018C617.55 94.0049 618.076 92.4499 618.759 90.9618C619.281 89.4047 619.972 87.9092 620.819 86.5018C620.457 88.1018 619.931 89.66 619.249 91.1518C618.723 92.7043 618.032 94.1961 617.189 95.6018Z" fill="#E0E0E0"/>
<path d="M614.059 113.685L590.407 104.263C589.647 103.96 588.787 104.33 588.484 105.09L582.622 119.805C582.32 120.565 582.69 121.425 583.449 121.728L607.102 131.15C607.861 131.452 608.722 131.082 609.024 130.323L614.886 115.607C615.189 114.848 614.818 113.987 614.059 113.685Z" fill="#EBEBEB"/>
<path d="M607.209 129.762C607.237 129.66 607.27 129.56 607.309 129.462L607.609 128.642L608.779 125.552C609.779 122.882 611.279 119.112 613.059 114.552L613.169 114.822L590.009 105.652C589.939 105.652 590.649 105.382 590.349 105.512V105.572L590.299 105.702L590.199 105.952L589.999 106.452L589.599 107.452C589.329 108.112 589.069 108.772 588.809 109.452C588.289 110.762 587.809 112.052 587.259 113.322L584.339 120.612L584.209 120.302L600.769 127.022L605.529 129.022L606.809 129.562C606.963 129.624 607.113 129.694 607.259 129.772L606.839 129.632L605.589 129.162L600.829 127.342L584.029 120.772L583.809 120.692L583.899 120.462C584.819 118.142 585.779 115.702 586.789 113.162C587.289 111.892 587.789 110.602 588.329 109.292C588.589 108.632 588.849 107.972 589.119 107.292L589.509 106.292L589.719 105.792L589.819 105.542L589.869 105.412V105.352L590.219 105.202L613.349 114.402L613.539 114.482L613.459 114.672C611.579 119.272 610.029 123.052 608.939 125.742L607.679 128.742L607.349 129.512C607.269 129.692 607.222 129.775 607.209 129.762Z" fill="#E0E0E0"/>
<path d="M607.709 118.082C604.986 117.281 602.315 116.316 599.709 115.192C597.052 114.228 594.458 113.103 591.939 111.822C594.663 112.618 597.335 113.583 599.939 114.712C602.595 115.676 605.19 116.801 607.709 118.082Z" fill="#E0E0E0"/>
<path d="M606.649 120.752C603.925 119.958 601.253 118.992 598.649 117.862C595.995 116.894 593.4 115.768 590.879 114.492C593.603 115.29 596.275 116.255 598.879 117.382C601.535 118.348 604.13 119.473 606.649 120.752Z" fill="#E0E0E0"/>
<path d="M605.629 123.322C602.904 122.529 600.231 121.564 597.629 120.432C594.973 119.466 592.379 118.341 589.859 117.062C592.584 117.856 595.256 118.821 597.859 119.952C600.513 120.92 603.108 122.045 605.629 123.322Z" fill="#E0E0E0"/>
<path d="M615.679 98.1718C612.731 97.2803 609.837 96.2219 607.009 95.0018C604.113 93.9401 601.279 92.7182 598.519 91.3418C601.472 92.2287 604.37 93.2872 607.199 94.5118C610.092 95.5722 612.923 96.7942 615.679 98.1718Z" fill="#E0E0E0"/>
<path d="M574.469 129.892C574.614 129.325 574.801 128.77 575.029 128.232C575.459 127.102 576.029 125.602 576.729 123.782C578.179 120.032 580.219 114.872 582.509 109.182C583.659 106.342 584.749 103.632 585.759 101.182C586.54 98.9236 587.783 96.8529 589.409 95.1018C590.559 93.945 592.048 93.1848 593.659 92.9318C594.094 92.8816 594.534 92.8816 594.969 92.9318C595.12 92.9484 595.268 92.9854 595.409 93.0418C594.834 93.0321 594.259 93.0655 593.689 93.1418C592.163 93.4676 590.769 94.2445 589.689 95.3718C588.138 97.1161 586.958 99.1574 586.219 101.372C585.219 103.852 584.149 106.562 583.009 109.372C580.729 115.062 578.629 120.212 577.089 123.922L575.239 128.302C575.029 128.853 574.771 129.385 574.469 129.892Z" fill="white"/>
<path d="M606.089 147.982C605.693 147.724 605.324 147.426 604.989 147.092C604.649 146.782 604.219 146.422 603.709 146.022C603.199 145.622 602.649 145.132 601.979 144.662C600.452 143.516 598.86 142.461 597.209 141.502C595.183 140.36 593.081 139.358 590.919 138.502C588.746 137.649 586.518 136.944 584.249 136.392C582.394 135.948 580.514 135.614 578.619 135.392C577.809 135.272 577.069 135.242 576.429 135.182C575.789 135.122 575.219 135.102 574.769 135.092C574.294 135.095 573.819 135.058 573.349 134.982C573.818 134.9 574.294 134.867 574.769 134.882C575.229 134.882 575.769 134.882 576.439 134.882C577.109 134.882 577.839 134.882 578.649 135.012C580.57 135.18 582.477 135.474 584.359 135.892C586.659 136.427 588.918 137.125 591.119 137.982C593.306 138.87 595.425 139.916 597.459 141.112C599.111 142.102 600.698 143.197 602.209 144.392C602.859 144.882 603.409 145.392 603.899 145.822C604.325 146.181 604.732 146.561 605.119 146.962C605.473 147.271 605.798 147.613 606.089 147.982Z" fill="white"/>
<path d="M79.6011 140.379L2.1716 177.643C0.97226 178.22 0.467917 179.66 1.04512 180.86L53.0192 288.854C53.5964 290.053 55.0365 290.557 56.2359 289.98L133.665 252.716C134.865 252.139 135.369 250.698 134.792 249.499L82.8179 141.505C82.2407 140.306 80.8005 139.801 79.6011 140.379Z" fill="#E0E0E0"/>
<path d="M78.3675 143.921L5.72266 178.883L56.0445 283.444L128.689 248.482L78.3675 143.921Z" fill="#FAFAFA"/>
<path d="M57.5791 155.872C56.1283 154.749 54.3928 154.052 52.5678 153.861C50.7429 153.671 48.9009 153.993 47.2491 154.792L45.0191 150.402C44.2414 148.792 42.8586 147.556 41.1725 146.962C39.4864 146.368 37.6339 146.465 36.0191 147.232C35.2154 147.618 34.4958 148.159 33.9013 148.823C33.3069 149.488 32.8493 150.263 32.5549 151.104C32.2604 151.946 32.1349 152.837 32.1853 153.727C32.2358 154.618 32.4614 155.489 32.8491 156.292L35.0791 160.922L33.5291 161.702C31.9115 162.514 30.5479 163.755 29.5869 165.289C28.6259 166.823 28.1043 168.592 28.0791 170.402V172.702L59.7091 157.482L57.5791 155.872ZM40.6991 156.592C40.0485 156.903 39.3202 157.015 38.6061 156.913C37.892 156.811 37.2241 156.5 36.6869 156.018C36.1497 155.537 35.7671 154.907 35.5875 154.208C35.408 153.51 35.4395 152.774 35.678 152.093C35.9166 151.412 36.3515 150.817 36.9278 150.383C37.5042 149.95 38.1962 149.696 38.9164 149.656C39.6366 149.615 40.3527 149.789 40.9744 150.154C41.596 150.52 42.0953 151.062 42.4091 151.712C42.6181 152.144 42.7397 152.614 42.7668 153.094C42.794 153.573 42.7262 154.054 42.5673 154.507C42.4084 154.96 42.1616 155.378 41.841 155.736C41.5204 156.093 41.1324 156.384 40.6991 156.592Z" fill="#EBEBEB"/>
<path d="M39.779 180.732C39.849 180.862 35.489 183.092 30.049 185.732C24.609 188.372 20.149 190.362 20.049 190.232C19.949 190.102 24.339 187.872 29.779 185.232C35.219 182.592 39.719 180.602 39.779 180.732Z" fill="#E0E0E0"/>
<path d="M31.179 188.962C29.7225 189.952 28.1716 190.796 26.549 191.482C24.9993 192.308 23.3713 192.978 21.689 193.482C23.158 192.508 24.7188 191.681 26.349 191.012C27.891 190.178 29.5082 189.492 31.179 188.962Z" fill="#E0E0E0"/>
<path d="M81.9091 175.952C81.9691 176.072 69.7491 182.092 54.6091 189.372C39.4691 196.652 27.1491 202.462 27.0891 202.372C27.0291 202.282 39.2491 196.192 54.3491 188.902C69.4491 181.612 81.8491 175.822 81.9091 175.952Z" fill="#E0E0E0"/>
<path d="M84.4291 181.172C84.4891 181.302 72.2691 187.312 57.1291 194.602C41.9891 201.892 29.6691 207.692 29.6091 207.602C29.5491 207.512 41.7591 201.462 56.9091 194.172C72.0591 186.882 84.3491 181.042 84.4291 181.172Z" fill="#E0E0E0"/>
<path d="M86.9389 186.402C87.0089 186.532 74.779 192.542 59.649 199.832C44.519 207.122 32.189 212.922 32.119 212.832C32.049 212.742 44.279 206.692 59.419 199.402C74.559 192.112 86.8789 186.272 86.9389 186.402Z" fill="#E0E0E0"/>
<path d="M89.4594 191.632C89.5194 191.762 77.2994 197.772 62.1594 205.062C47.0194 212.352 34.6994 218.142 34.6394 218.062C34.5794 217.982 46.7994 211.922 61.9394 204.642C77.0794 197.362 89.3994 191.502 89.4594 191.632Z" fill="#E0E0E0"/>
<path d="M91.9789 196.852C92.0389 196.982 79.8189 203.002 64.6789 210.282C49.5389 217.562 37.2189 223.372 37.1589 223.282C37.0989 223.192 49.3489 217.102 64.4489 209.812C79.5489 202.522 91.9089 196.732 91.9789 196.852Z" fill="#E0E0E0"/>
<path d="M94.4892 202.082C94.5492 202.212 82.3292 208.222 67.1992 215.512C52.0692 222.802 39.7292 228.602 39.6692 228.512C39.6092 228.422 51.8292 222.372 66.9692 215.082C82.1092 207.792 94.4292 201.952 94.4892 202.082Z" fill="#E0E0E0"/>
<path d="M69.349 219.992C69.0404 220.233 68.7048 220.438 68.349 220.602L65.449 222.092C62.989 223.322 59.569 225.002 55.789 226.822C52.009 228.642 48.559 230.272 46.059 231.422L43.059 232.762C42.7044 232.947 42.3282 233.089 41.939 233.182C42.2524 232.948 42.5872 232.743 42.939 232.572L45.839 231.092C48.299 229.852 51.719 228.172 55.499 226.352C59.279 224.532 62.729 222.912 65.229 221.762L68.229 220.422C68.5848 220.237 68.9606 220.092 69.349 219.992Z" fill="#E0E0E0"/>
<path d="M77.9992 161.752C76.6597 162.684 75.225 163.472 73.7192 164.102C72.2908 164.888 70.7822 165.518 69.2192 165.982C70.5588 165.049 71.9935 164.262 73.4992 163.632C74.9277 162.846 76.4363 162.216 77.9992 161.752Z" fill="#E0E0E0"/>
<path d="M62.3491 237.402C60.1005 238.777 57.7619 240 55.3491 241.062C53.0113 242.282 50.5961 243.347 48.1191 244.252C50.3677 242.876 52.7064 241.653 55.1191 240.592C57.457 239.372 59.8721 238.306 62.3491 237.402Z" fill="#E0E0E0"/>
<path d="M65.1292 241.902C62.8403 243.294 60.4617 244.534 58.0092 245.612C55.6327 246.854 53.1775 247.94 50.6592 248.862C52.9505 247.471 55.3288 246.228 57.7792 245.142C60.1569 243.905 62.612 242.823 65.1292 241.902Z" fill="#E0E0E0"/>
<path d="M103.349 216.792C102.336 217.574 101.219 218.21 100.029 218.682C98.9133 219.316 97.7154 219.794 96.4692 220.102C97.4913 219.328 98.6109 218.693 99.7992 218.212C100.914 217.583 102.108 217.106 103.349 216.792Z" fill="#E0E0E0"/>
<path d="M105.619 220.952C104.597 221.726 103.478 222.361 102.289 222.842C101.174 223.471 99.9804 223.948 98.7393 224.262C99.7522 223.48 100.87 222.844 102.059 222.372C103.175 221.737 104.373 221.26 105.619 220.952Z" fill="#E0E0E0"/>
<path d="M60.8893 250.082C59.9089 250.837 58.8286 251.453 57.6793 251.912C56.601 252.524 55.4434 252.985 54.2393 253.282C55.2182 252.511 56.2983 251.879 57.4493 251.402C58.5296 250.805 59.6872 250.361 60.8893 250.082Z" fill="#E0E0E0"/>
<path d="M108.249 225.822C107.556 226.443 106.752 226.928 105.879 227.252C105.074 227.736 104.191 228.074 103.269 228.252C103.965 227.627 104.772 227.138 105.649 226.812C106.447 226.324 107.329 225.989 108.249 225.822Z" fill="#E0E0E0"/>
<path d="M59.2192 264.742C59.3053 264.663 59.3991 264.592 59.4992 264.532L60.3392 263.972L63.5692 261.902L75.1792 254.612L75.4092 254.462L75.5092 254.712C76.058 256.123 76.1039 257.681 75.6392 259.122C75.4034 259.904 74.9927 260.621 74.4383 261.221C73.8838 261.82 73.2002 262.286 72.4392 262.582C71.6251 262.91 70.7425 263.031 69.8701 262.935C68.9977 262.839 68.1626 262.529 67.4392 262.032C66.7158 261.472 66.1733 260.712 65.8799 259.846C65.5864 258.979 65.5549 258.046 65.7892 257.162C65.9693 256.483 66.3126 255.858 66.7892 255.342C66.906 255.212 67.0331 255.091 67.1692 254.982C67.3043 254.858 67.4558 254.754 67.6192 254.672C67.7274 254.616 67.8474 254.586 67.9692 254.586C68.0911 254.586 68.2111 254.616 68.3192 254.672C68.4896 254.788 68.6273 254.947 68.7192 255.132C69.3228 256.276 69.6644 257.54 69.7192 258.832C69.7952 260.075 69.6008 261.321 69.1492 262.482C68.7674 263.643 68.0113 264.646 66.9992 265.332C66.4859 265.638 65.8968 265.794 65.2992 265.781C64.7016 265.769 64.1195 265.589 63.6192 265.262C62.6876 264.676 61.9824 263.791 61.6192 262.752C61.1573 260.897 61.1573 258.957 61.6192 257.102L61.6792 256.722L61.9392 257.012C63.0003 258.22 63.6667 259.724 63.8492 261.322C63.9888 262.516 63.8729 263.726 63.5092 264.872C63.2769 265.584 62.9399 266.258 62.5092 266.872C62.3492 267.082 62.2192 267.222 62.1292 267.322C62.0392 267.422 61.9992 267.472 61.9892 267.462C62.5722 266.652 63.0213 265.754 63.3192 264.802C63.6334 263.68 63.7151 262.506 63.5592 261.352C63.3622 259.824 62.7027 258.394 61.6692 257.252L61.9892 257.162C61.5442 258.948 61.5442 260.816 61.9892 262.602C62.3248 263.541 62.9702 264.338 63.8192 264.862C64.2476 265.141 64.7459 265.294 65.257 265.302C65.7682 265.311 66.2715 265.176 66.7092 264.912C67.6218 264.275 68.3027 263.359 68.6492 262.302C69.0641 261.198 69.2413 260.019 69.1692 258.842C69.0966 257.625 68.755 256.44 68.1692 255.372C68.1259 255.264 68.0532 255.17 67.9592 255.102C67.9258 255.082 67.8879 255.072 67.8492 255.072C67.8106 255.072 67.7727 255.082 67.7392 255.102C67.493 255.243 67.2731 255.426 67.0892 255.642C66.6848 256.096 66.3965 256.642 66.2492 257.232C66.0408 258.017 66.0681 258.846 66.3277 259.616C66.5874 260.386 67.0678 261.063 67.7092 261.562C68.3567 262 69.1008 262.274 69.8776 262.361C70.6545 262.448 71.4409 262.346 72.1692 262.062C72.8621 261.794 73.4851 261.372 73.9909 260.828C74.4968 260.284 74.8724 259.632 75.0892 258.922C75.5317 257.589 75.5 256.144 74.9992 254.832L75.3292 254.942L63.6192 262.072L60.3192 264.072L59.4492 264.572C59.3789 264.637 59.3018 264.694 59.2192 264.742Z" fill="#E0E0E0"/>
<path d="M111.139 239.532C111.136 239.852 111.082 240.169 110.979 240.472C110.878 240.846 110.723 241.203 110.519 241.532C110.24 242.008 109.795 242.364 109.269 242.532C108.945 242.642 108.593 242.642 108.269 242.532C107.935 242.395 107.645 242.17 107.429 241.882C107.019 241.271 106.645 240.636 106.309 239.982L103.859 235.402L104.309 235.302C104.229 237.592 104.149 240.092 104.049 242.712C104.049 243.342 104.049 243.952 103.979 244.562V245.562L103.529 244.632C102.159 241.822 100.889 239.192 99.769 236.912H100.189C99.5459 239.19 99.2096 241.544 99.189 243.912C99.189 245.622 99.299 246.592 99.249 246.602C99.1629 246.378 99.1123 246.142 99.099 245.902C99.0085 245.238 98.9517 244.571 98.929 243.902C98.8401 241.513 99.1029 239.124 99.709 236.812L99.859 236.232L100.119 236.772L103.949 244.462L103.449 244.562C103.449 243.962 103.449 243.342 103.519 242.712C103.629 240.092 103.729 237.592 103.819 235.302V234.402L104.229 235.192C105.109 236.842 105.919 238.382 106.649 239.762C106.965 240.41 107.315 241.041 107.699 241.652C107.845 241.893 108.065 242.082 108.325 242.192C108.585 242.302 108.874 242.326 109.149 242.262C109.546 242.122 109.903 241.886 110.187 241.576C110.471 241.266 110.675 240.89 110.779 240.482C110.877 240.157 110.998 239.84 111.139 239.532Z" fill="#E0E0E0"/>
<path d="M111.039 235.792C111.119 235.902 106.989 238.852 101.819 242.372C96.6493 245.892 92.3893 248.642 92.3093 248.522C92.2293 248.402 96.3092 245.462 101.529 241.942C106.749 238.422 110.959 235.672 111.039 235.792Z" fill="#E0E0E0"/>
<path d="M116.109 236.662C113.976 238.841 111.719 240.894 109.349 242.812C107.095 244.866 104.724 246.789 102.249 248.572C104.385 246.396 106.642 244.343 109.009 242.422C111.263 240.367 113.634 238.444 116.109 236.662Z" fill="#E0E0E0"/>
<path d="M152.689 21.2318H148.479L139.349 8.40184V0.00183852C139.349 0.00183852 132.839 -0.398159 133.609 10.6018C134.379 21.6018 133.549 18.7918 133.549 18.7918C133.549 18.7918 119.739 18.8518 118.549 20.0518C117.709 20.9218 117.339 34.6418 117.189 42.0518C117.1 43.8467 117.614 45.6197 118.649 47.0891C119.683 48.5585 121.179 49.6401 122.899 50.1618C123.37 50.3029 123.857 50.3835 124.349 50.4018C127.789 50.4018 145.349 47.6018 145.349 47.6018H152.619L152.689 21.2318Z" fill="#F5F5F5"/>
<path d="M164.739 18.9219L162.149 47.7019H154.939V19.5019L164.739 18.9219Z" fill="#F5F5F5"/>
</svg>
