<svg width="439" height="342" viewBox="0 0 439 342" fill="none" xmlns="http://www.w3.org/2000/svg">
<path d="M292.38 87.722C283.6 85.782 275.07 83.102 267.28 79.072C265.64 78.222 264.07 77.302 262.54 76.302C248.57 67.132 239.03 51.962 227.84 39.882C179.91 -11.868 95.8603 4.49196 51.8603 52.772C33.0703 73.382 20.4903 99.632 16.3803 127.222C8.07027 183.102 32.6203 242.642 90.7903 257.622C125.85 266.652 159.64 256.672 194.45 252.762C203.86 251.702 213.29 251.742 222.67 252.562C226.88 252.922 231.08 253.452 235.26 254.112C242.27 255.212 249.23 256.672 256.12 258.382C261.97 259.822 267.76 261.442 273.48 263.142C274.52 263.452 275.56 263.772 276.6 264.092C292.26 268.982 308.71 275.612 325.31 280.512C325.84 280.672 326.38 280.832 326.92 280.982C339.27 284.542 351.69 287.082 363.92 287.152C420.77 287.482 448.3 222.282 434.5 173.652C420.79 125.332 373.66 104.772 328.31 94.552C325.76 93.982 323.22 93.432 320.69 92.922C318.2 92.422 315.73 91.952 313.27 91.502C311.71 91.212 310.16 90.942 308.61 90.682C306.91 90.382 305.22 90.102 303.54 89.832C302.87 89.722 302.2 89.612 301.53 89.502C298.46 88.982 295.4 88.392 292.38 87.722Z" fill="#B5C2F6"/>
<path d="M96.3604 298.715C87.1214 298.715 78.3274 297.614 70.1294 295.425C58.7024 292.373 48.0864 287.117 38.5784 279.802C27.0364 270.925 17.2854 258.842 10.3774 244.863C3.42838 230.798 -0.158618 215.774 0.00538184 201.415C0.130382 190.531 2.39238 180.405 6.72838 171.318C11.4114 161.503 18.4324 153.12 27.5964 146.399C36.3604 139.97 46.9784 134.531 61.0124 129.282C61.5354 129.081 62.0654 128.887 62.5874 128.699C71.5244 125.421 80.8124 122.566 89.7944 119.806C97.3654 117.479 104.517 115.282 111.487 112.848C112.512 112.486 113.537 112.122 114.556 111.751C120.846 109.457 126.331 107.323 131.327 105.228C138.308 102.315 144.616 99.371 150.612 96.227C154.508 94.189 158.218 92.084 161.637 89.971C170.196 84.707 177.563 79.157 184.157 73.004C190.429 67.156 196.526 60.959 202.423 54.966C220.497 36.597 239.185 17.603 264.531 7.28802C290.692 -3.36098 318.257 -2.32298 344.244 10.29C367.955 21.799 388.524 42.185 402.162 67.692C415.224 92.139 420.872 120.904 418.066 148.691C416.233 166.88 410.315 185.332 400.954 202.051C391.561 218.825 378.937 233.425 364.447 244.273C352.844 252.96 340.307 259.113 327.188 262.561C313.155 266.249 298.726 266.749 284.302 264.049C279.295 263.111 274.139 261.819 269.153 260.568C257.903 257.745 246.269 254.822 234.762 255.493C232.912 255.602 231.131 255.799 229.318 256.092C221.497 257.365 213.228 259.984 204.04 264.1C201.328 265.312 198.5 266.665 195.637 268.122L193.827 269.056C192.055 269.976 190.6 270.72 189.248 271.396C187.695 272.19 186.31 272.883 185.016 273.516C182.578 274.717 180.351 275.791 178.21 276.799C176.099 277.792 173.779 278.85 171.118 280.033C145.912 291.197 123.912 297.231 103.859 298.481C101.329 298.637 98.8284 298.715 96.3604 298.715ZM300.957 0.251018C288.741 0.251018 276.537 2.67002 264.622 7.52002C239.324 17.816 220.654 36.791 202.598 55.142C196.7 61.137 190.601 67.335 184.325 73.187C177.718 79.351 170.339 84.912 161.765 90.184C158.341 92.299 154.626 94.407 150.725 96.449C144.723 99.596 138.409 102.543 131.421 105.459C126.422 107.557 120.933 109.692 114.64 111.987C113.619 112.359 112.593 112.722 111.567 113.085C104.592 115.521 97.4394 117.719 89.8654 120.046C80.8864 122.806 71.6024 125.659 62.6704 128.935C62.1494 129.122 61.6214 129.316 61.0994 129.517C47.0864 134.759 36.4874 140.187 27.7424 146.601C18.6134 153.297 11.6184 161.649 6.95238 171.426C2.63138 180.481 0.377381 190.572 0.253381 201.418C0.089381 215.738 3.66738 230.723 10.5994 244.752C17.4904 258.698 27.2174 270.75 38.7284 279.605C48.2114 286.899 58.7974 292.141 70.1914 295.184C80.5534 297.951 91.8734 298.977 103.84 298.23C123.863 296.983 145.836 290.955 171.013 279.803C173.672 278.62 175.991 277.563 178.1 276.571C180.239 275.563 182.464 274.49 184.902 273.29C186.195 272.658 187.578 271.965 189.131 271.172C190.482 270.496 191.936 269.753 193.708 268.832L195.519 267.898C198.386 266.439 201.217 265.085 203.933 263.871C213.141 259.746 221.431 257.121 229.273 255.846C231.095 255.551 232.884 255.354 234.743 255.244C246.293 254.574 257.94 257.5 269.209 260.326C274.192 261.576 279.345 262.869 284.345 263.805C298.729 266.498 313.122 266 327.12 262.321C340.208 258.882 352.715 252.743 364.293 244.075C378.755 233.248 391.356 218.676 400.731 201.932C410.076 185.242 415.983 166.825 417.813 148.669C420.613 120.932 414.975 92.217 401.936 67.814C388.324 42.353 367.793 22.005 344.129 10.519C330.047 3.67802 315.494 0.251018 300.957 0.251018Z" fill="#637ED3"/>
<path d="M117.56 285.459C117.008 285.459 116.56 285.012 116.56 284.459V270.855C116.56 270.302 117.008 269.855 117.56 269.855C118.112 269.855 118.56 270.302 118.56 270.855V284.46C118.56 285.012 118.113 285.459 117.56 285.459Z" fill="#FBB136"/>
<path d="M124.363 278.657H110.759C110.207 278.657 109.759 278.21 109.759 277.657C109.759 277.104 110.207 276.657 110.759 276.657H124.363C124.915 276.657 125.363 277.104 125.363 277.657C125.363 278.21 124.915 278.657 124.363 278.657Z" fill="#FBB136"/>
<path d="M285.843 54.927C285.29 54.927 284.843 54.479 284.843 53.927V40.323C284.843 39.771 285.29 39.323 285.843 39.323C286.396 39.323 286.843 39.771 286.843 40.323V53.927C286.843 54.479 286.396 54.927 285.843 54.927Z" fill="#FBB136"/>
<path d="M292.646 48.125H279.042C278.489 48.125 278.042 47.677 278.042 47.125C278.042 46.573 278.489 46.125 279.042 46.125H292.646C293.199 46.125 293.646 46.573 293.646 47.125C293.646 47.677 293.198 48.125 292.646 48.125Z" fill="#FBB136"/>
<path d="M87.3753 12.063C87.1193 12.063 86.8632 11.965 86.6682 11.77C86.2772 11.379 86.2772 10.747 86.6682 10.356L96.2883 0.735999C96.6793 0.344999 97.3112 0.344999 97.7022 0.735999C98.0932 1.127 98.0932 1.759 97.7022 2.15L88.0823 11.77C87.8863 11.966 87.6313 12.063 87.3753 12.063Z" fill="#FBB136"/>
<path d="M96.9943 12.063C96.7383 12.063 96.4823 11.965 96.2873 11.77L86.6673 2.15C86.2763 1.759 86.2763 1.126 86.6673 0.735999C87.0583 0.344999 87.6903 0.344999 88.0813 0.735999L97.7013 10.356C98.0923 10.747 98.0923 11.379 97.7013 11.77C97.5063 11.966 97.2503 12.063 96.9943 12.063Z" fill="#FBB136"/>
<path d="M29.9263 239.236C29.3743 239.236 28.9263 238.789 28.9263 238.236V224.632C28.9263 224.079 29.3743 223.632 29.9263 223.632C30.4783 223.632 30.9263 224.079 30.9263 224.632V238.236C30.9263 238.788 30.4783 239.236 29.9263 239.236Z" fill="#407FFE"/>
<path d="M36.7285 232.433H23.1245C22.5725 232.433 22.1245 231.986 22.1245 231.433C22.1245 230.88 22.5725 230.433 23.1245 230.433H36.7285C37.2805 230.433 37.7285 230.88 37.7285 231.433C37.7285 231.986 37.2815 232.433 36.7285 232.433Z" fill="#407FFE"/>
<path d="M259.036 281.417C258.78 281.417 258.524 281.319 258.329 281.124L248.71 271.504C248.319 271.113 248.319 270.481 248.71 270.09C249.101 269.699 249.733 269.699 250.124 270.09L259.743 279.71C260.134 280.101 260.134 280.733 259.743 281.124C259.548 281.32 259.292 281.417 259.036 281.417Z" fill="#407FFE"/>
<path d="M249.417 281.417C249.161 281.417 248.905 281.319 248.71 281.124C248.319 280.733 248.319 280.101 248.71 279.71L258.329 270.09C258.72 269.699 259.352 269.699 259.743 270.09C260.134 270.481 260.134 271.113 259.743 271.504L250.124 281.124C249.929 281.32 249.673 281.417 249.417 281.417Z" fill="#407FFE"/>
<path d="M410.438 108.168C409.885 108.168 409.438 107.72 409.438 107.168V93.564C409.438 93.012 409.885 92.564 410.438 92.564C410.991 92.564 411.438 93.012 411.438 93.564V107.168C411.438 107.72 410.99 108.168 410.438 108.168Z" fill="#407FFE"/>
<path d="M417.241 101.366H403.637C403.084 101.366 402.637 100.918 402.637 100.366C402.637 99.814 403.084 99.366 403.637 99.366H417.241C417.794 99.366 418.241 99.814 418.241 100.366C418.241 100.918 417.794 101.366 417.241 101.366Z" fill="#407FFE"/>
<path d="M15.4843 205.188C15.4843 202.611 13.3953 200.523 10.8193 200.523C8.2423 200.523 6.1543 202.612 6.1543 205.188C6.1543 207.764 8.2433 209.853 10.8193 209.853C13.3953 209.854 15.4843 207.765 15.4843 205.188Z" fill="#B5C2F6"/>
<path d="M227.955 15.601C227.955 13.024 225.866 10.936 223.29 10.936C220.713 10.936 218.625 13.025 218.625 15.601C218.625 18.177 220.714 20.266 223.29 20.266C225.866 20.266 227.955 18.177 227.955 15.601Z" fill="#B5C2F6"/>
<path d="M431.74 123.731C431.74 121.154 429.651 119.066 427.075 119.066C424.499 119.066 422.41 121.155 422.41 123.731C422.41 126.307 424.499 128.396 427.075 128.396C429.651 128.396 431.74 126.307 431.74 123.731Z" fill="#B5C2F6"/>
<path d="M82.6903 304.091C87.9343 304.091 92.1853 299.84 92.1853 294.596C92.1853 289.352 87.9343 285.101 82.6903 285.101C77.4464 285.101 73.1953 289.352 73.1953 294.596C73.1953 299.84 77.4464 304.091 82.6903 304.091Z" fill="#B5C2F6"/>
<path d="M310.935 31.448C316.111 30.6053 319.624 25.7264 318.781 20.5506C317.939 15.3748 313.06 11.8622 307.884 12.7049C302.708 13.5476 299.195 18.4265 300.038 23.6023C300.881 28.7781 305.76 32.2907 310.935 31.448Z" fill="#B5C2F6"/>
<path d="M252.051 210.308H55.6585C47.4815 210.308 40.8535 203.679 40.8535 195.503V49.003C40.8535 40.826 47.4825 34.198 55.6585 34.198H252.051C260.228 34.198 266.856 40.827 266.856 49.003V195.503C266.856 203.679 260.228 210.308 252.051 210.308Z" fill="#607BFF"/>
<path d="M55.3266 202.978C51.2046 202.978 47.8516 199.624 47.8516 195.502V76.067C47.8516 71.945 51.2046 68.592 55.3266 68.592H251.719C255.841 68.592 259.195 71.946 259.195 76.067V195.502C259.195 199.624 255.841 202.978 251.719 202.978H55.3266Z" fill="#EBF3FF"/>
<path d="M76.5635 76.636H54.4805V98.138H76.5635V76.636Z" fill="#E1ECFF"/>
<path d="M106.007 76.636H83.9243V98.138H106.007V76.636Z" fill="#E1ECFF"/>
<path d="M135.452 76.636H113.369V98.138H135.452V76.636Z" fill="#FBB136"/>
<path d="M164.896 76.636H142.812V98.138H164.896V76.636Z" fill="#E1ECFF"/>
<path d="M194.34 76.636H172.257V98.138H194.34V76.636Z" fill="#E1ECFF"/>
<path d="M223.785 76.636H201.702V98.138H223.785V76.636Z" fill="#E1ECFF"/>
<path d="M253.229 76.636H231.146V98.138H253.229V76.636Z" fill="#6177FF"/>
<path d="M76.5635 108.548H54.4805V130.05H76.5635V108.548Z" fill="#F0746A"/>
<path d="M106.007 108.548H83.9243V130.05H106.007V108.548Z" fill="#E1ECFF"/>
<path d="M135.452 108.548H113.369V130.05H135.452V108.548Z" fill="#E1ECFF"/>
<path d="M164.896 108.548H142.812V130.05H164.896V108.548Z" fill="#E1ECFF"/>
<path d="M194.34 108.548H172.257V130.05H194.34V108.548Z" fill="#E1ECFF"/>
<path d="M223.785 108.548H201.702V130.05H223.785V108.548Z" fill="#E1ECFF"/>
<path d="M253.229 108.548H231.146V130.05H253.229V108.548Z" fill="#F0746A"/>
<path d="M76.5635 140.461H54.4805V161.963H76.5635V140.461Z" fill="#E1ECFF"/>
<path d="M106.007 140.461H83.9243V161.963H106.007V140.461Z" fill="#F0746A"/>
<path d="M135.452 140.461H113.369V161.963H135.452V140.461Z" fill="#E1ECFF"/>
<path d="M164.896 140.461H142.812V161.963H164.896V140.461Z" fill="#6177FF"/>
<path d="M194.34 140.461H172.257V161.963H194.34V140.461Z" fill="#E1ECFF"/>
<path d="M223.785 140.461H201.702V161.963H223.785V140.461Z" fill="#6177FF"/>
<path d="M253.229 140.461H231.146V161.963H253.229V140.461Z" fill="#E1ECFF"/>
<path d="M76.5635 172.373H54.4805V193.875H76.5635V172.373Z" fill="#F0746A"/>
<path d="M106.007 172.373H83.9243V193.875H106.007V172.373Z" fill="#6177FF"/>
<path d="M135.452 172.373H113.369V193.875H135.452V172.373Z" fill="#E1ECFF"/>
<path d="M164.896 172.373H142.812V193.875H164.896V172.373Z" fill="#E1ECFF"/>
<path d="M194.34 172.373H172.257V193.875H194.34V172.373Z" fill="#E1ECFF"/>
<path d="M223.785 172.373H201.702V193.875H223.785V172.373Z" fill="#F0746A"/>
<path d="M253.229 172.373H231.146V193.875H253.229V172.373Z" fill="#6177FF"/>
<path d="M62.5113 58.685H59.0943L57.0813 51.957C57.2133 52.844 57.4383 54.116 57.4383 55.824V58.685H55.0273V49.467H58.3793L60.4723 56.222C60.2993 55.149 60.1013 54.09 60.1013 52.421V49.467H62.5113V58.685Z" fill="white"/>
<path d="M73.5133 54.063C73.5133 57.057 71.9773 58.951 69.2083 58.951C66.4403 58.951 64.9033 57.123 64.9033 54.063C64.9033 51.07 66.4403 49.203 69.2083 49.203C71.9773 49.203 73.5133 51.003 73.5133 54.063ZM67.7393 54.063C67.7393 56.196 68.1763 57.017 69.2093 57.017C70.2693 57.017 70.6803 56.196 70.6803 54.063C70.6803 51.931 70.2423 51.136 69.2093 51.136C68.1753 51.136 67.7393 51.931 67.7393 54.063Z" fill="white"/>
<path d="M80.9395 58.685H77.4165L74.9395 49.467H77.8135L79.2175 56.791L80.4754 49.467H83.2704L80.9395 58.685Z" fill="white"/>
<path d="M90.8424 51.361H87.7954V53.083H90.4714V54.924H87.7954V56.778H91.0544V58.685H85.0674V49.467H91.1204L90.8424 51.361Z" fill="white"/>
<path d="M103.223 58.685H100.535L100.469 55.414C100.443 54.222 100.443 53.03 100.562 51.653L99.4755 57.758H96.8925L95.7275 51.653C95.8735 53.176 95.9255 54.156 95.8995 55.401L95.8335 58.686H93.1455L93.8075 49.468H97.1715L98.2315 55.441L99.1855 49.468H102.563L103.223 58.685Z" fill="white"/>
<path d="M113.018 55.957C113.018 58.143 111.204 58.686 108.78 58.686H105.548V49.468H108.422C111.005 49.468 112.634 50.051 112.634 51.852C112.634 53.044 111.786 53.587 110.965 53.799C111.971 54.01 113.018 54.513 113.018 55.957ZM108.276 51.335V53.03H108.74C109.574 53.03 109.866 52.778 109.866 52.129C109.866 51.586 109.548 51.335 108.674 51.335H108.276ZM110.21 55.772C110.21 55.057 109.76 54.752 108.912 54.752H108.276V56.765H108.806C109.64 56.765 110.21 56.593 110.21 55.772Z" fill="white"/>
<path d="M121.12 51.361H118.073V53.083H120.749V54.924H118.073V56.778H121.332V58.685H115.345V49.467H121.398L121.12 51.361Z" fill="white"/>
<path d="M127.023 55.401H126.521V58.686H123.792V49.468H127.169C129.805 49.468 131.13 50.368 131.13 52.395C131.13 53.56 130.625 54.249 129.499 54.898L131.752 58.686H128.732L127.023 55.401ZM126.521 53.573H127.236C127.978 53.573 128.348 53.202 128.348 52.394C128.348 51.665 127.911 51.334 127.104 51.334H126.521V53.573Z" fill="white"/>
<path d="M225.053 52.1091C225.053 53.7911 224.006 54.9441 221.239 57.7511H225.264L225.132 58.6911H219.967V57.8041C223.118 54.4931 223.887 53.6321 223.887 52.1611C223.887 51.1941 223.278 50.6251 222.39 50.6251C221.622 50.6251 221.106 50.9431 220.523 51.6051L219.794 51.0231C220.51 50.1481 221.344 49.7111 222.444 49.7111C224.046 49.7121 225.053 50.7451 225.053 52.1091Z" fill="white"/>
<path d="M234.096 54.281C234.096 57.221 233.129 58.851 231.182 58.851C229.236 58.851 228.269 57.222 228.269 54.268C228.269 51.314 229.236 49.712 231.182 49.712C233.129 49.712 234.096 51.328 234.096 54.281ZM229.422 54.268C229.422 56.904 230.03 57.963 231.183 57.963C232.323 57.963 232.945 56.903 232.945 54.281C232.945 51.646 232.323 50.599 231.183 50.599C230.03 50.599 229.422 51.646 229.422 54.268Z" fill="white"/>
<path d="M241.88 52.1091C241.88 53.7911 240.834 54.9441 238.066 57.7511H242.093L241.96 58.6911H236.794V57.8041C239.946 54.4931 240.715 53.6321 240.715 52.1611C240.715 51.1941 240.106 50.6251 239.218 50.6251C238.45 50.6251 237.934 50.9431 237.351 51.6051L236.623 51.0231C237.339 50.1481 238.173 49.7111 239.272 49.7111C240.875 49.7121 241.88 50.7451 241.88 52.1091Z" fill="white"/>
<path d="M250.922 54.281C250.922 57.221 249.955 58.851 248.008 58.851C246.062 58.851 245.095 57.222 245.095 54.268C245.095 51.314 246.062 49.712 248.008 49.712C249.956 49.712 250.922 51.328 250.922 54.281ZM246.248 54.268C246.248 56.904 246.856 57.963 248.009 57.963C249.149 57.963 249.771 56.903 249.771 54.281C249.771 51.646 249.149 50.599 248.009 50.599C246.856 50.599 246.248 51.646 246.248 54.268Z" fill="white"/>
<path d="M162.987 250.128C183.948 245.09 196.855 224.014 191.817 203.054C186.779 182.094 165.703 169.186 144.743 174.224C123.783 179.262 110.876 200.338 115.914 221.298C120.951 242.258 142.027 255.166 162.987 250.128Z" fill="#FBB136"/>
<path d="M159.135 244.469C176.962 241.546 189.044 224.725 186.121 206.898C183.198 189.071 166.377 176.99 148.55 179.913C130.722 182.836 118.64 199.657 121.563 217.484C124.486 235.31 141.307 247.392 159.135 244.469Z" fill="#FFDB76"/>
<path d="M153.855 213.691C153.395 213.691 152.95 213.479 152.661 213.1L138.795 194.891C138.293 194.232 138.421 193.29 139.08 192.789C139.739 192.287 140.681 192.416 141.182 193.073L152.354 207.745V183.239C152.354 182.411 153.025 181.739 153.854 181.739C154.683 181.739 155.354 182.411 155.354 183.239V212.191C155.354 212.835 154.943 213.407 154.334 213.612C154.176 213.665 154.014 213.691 153.855 213.691Z" fill="white"/>
<path d="M163.316 170.2H144.681V175.636H163.316V170.2Z" fill="#FBB136"/>
<path d="M164.808 170.2H143.188C141.687 170.2 140.47 168.983 140.47 167.482C140.47 165.981 141.687 164.764 143.188 164.764H164.808C166.309 164.764 167.526 165.981 167.526 167.482C167.526 168.983 166.309 170.2 164.808 170.2Z" fill="#FFDB76"/>
<path d="M112.544 221.016C111.287 221.016 110.267 219.997 110.267 218.739V205.642C110.267 204.385 111.286 203.365 112.544 203.365C113.801 203.365 114.821 204.384 114.821 205.642V218.739C114.821 219.996 113.801 221.016 112.544 221.016Z" fill="#FFDB76"/>
<path d="M125.587 165.464H11.4733C6.49926 165.464 2.46826 161.432 2.46826 156.459V119.889C2.46826 114.915 6.50026 110.884 11.4733 110.884H125.586C130.559 110.884 134.591 114.916 134.591 119.889V156.459C134.592 161.433 130.56 165.464 125.587 165.464Z" fill="#407FFE"/>
<path d="M119.995 134.421H17.0654C16.1924 134.421 15.4844 133.713 15.4844 132.84C15.4844 131.967 16.1924 131.259 17.0654 131.259H119.995C120.868 131.259 121.576 131.967 121.576 132.84C121.576 133.713 120.868 134.421 119.995 134.421Z" fill="white"/>
<path d="M119.995 143.321H17.0654C16.1924 143.321 15.4844 142.613 15.4844 141.74C15.4844 140.867 16.1924 140.159 17.0654 140.159H119.995C120.868 140.159 121.576 140.867 121.576 141.74C121.576 142.613 120.868 143.321 119.995 143.321Z" fill="white"/>
<path d="M102.601 110.884L124.362 83.979L121.875 110.884H102.601Z" fill="#407FFE"/>
<path d="M254.758 232.406C269.782 228.904 279.123 213.886 275.621 198.861C272.119 183.837 257.101 174.496 242.077 177.998C227.052 181.5 217.711 196.519 221.213 211.543C224.715 226.567 239.734 235.908 254.758 232.406Z" fill="#328F60"/>
<path d="M238.529 216.721C238.419 216.721 238.308 216.707 238.2 216.679C237.825 216.582 237.514 216.324 237.348 215.974L230.97 202.519C230.66 201.866 230.939 201.086 231.591 200.777C232.246 200.467 233.025 200.746 233.333 201.398L239.042 213.441L263.939 195.676C264.528 195.258 265.344 195.394 265.763 195.981C266.183 196.569 266.046 197.386 265.458 197.805L239.289 216.478C239.065 216.638 238.798 216.721 238.529 216.721Z" fill="white"/>
<path d="M413.609 201.552C412.619 204.092 411.549 206.602 410.439 209.052H410.429C405.229 191.142 394.219 184.172 387.929 181.582C385.129 180.422 383.269 180.142 383.269 180.142C384.009 178.392 384.839 176.772 385.709 175.272C385.709 175.272 404.309 175.782 413.609 201.552Z" fill="white"/>
<path d="M375.128 175.272L390.598 168.462C388.898 170.402 387.218 172.652 385.708 175.272C384.838 176.772 384.008 178.392 383.268 180.142C382.298 182.412 381.448 184.882 380.778 187.592L375.128 175.272Z" fill="#CE3F38"/>
<path d="M388.279 203.932L380.779 187.592C381.449 184.882 382.299 182.412 383.269 180.142C383.269 180.142 385.129 180.422 387.929 181.582C387.929 181.582 386.929 190.832 388.279 203.932Z" fill="#DD6936"/>
<path d="M385.489 286.912L383.719 280.512C384.249 280.672 384.789 280.832 385.329 280.982C385.389 282.972 385.449 284.952 385.489 286.912Z" fill="#CE3F38"/>
<path d="M385.329 280.982C384.789 280.832 384.249 280.672 383.719 280.512L381.119 271.072C382.389 270.882 383.659 270.602 384.919 270.232C385.079 273.752 385.209 277.372 385.329 280.982Z" fill="#CE3F38"/>
<path d="M383.269 247.562C383.989 253.422 384.529 261.532 384.919 270.232C383.659 270.602 382.389 270.882 381.119 271.072L374.729 247.932V247.922C376.989 248.782 379.819 248.942 383.269 247.562Z" fill="#CE3F38"/>
<path d="M378.868 104.372H378.858L377.418 102.332L371.278 93.682L367.608 96.652L362.568 100.732L354.818 107.002C356.288 106.112 358.068 105.862 359.728 106.312L364.458 107.582C364.998 107.722 365.488 107.962 365.938 108.262V101.672C365.938 101.012 366.208 100.412 366.638 99.982C366.908 99.712 367.238 99.512 367.608 99.392C367.828 99.322 368.068 99.282 368.318 99.282C369.558 99.282 370.598 100.232 370.708 101.462L371.848 114.512L372.178 118.192L373.378 117.112L382.208 109.082L378.868 104.372Z" fill="#212155"/>
<path d="M362.168 94.6521C362.588 96.4021 362.778 98.4221 362.568 100.732L354.818 107.002L353.728 107.662C352.548 108.372 352.018 109.812 352.458 111.122L352.438 111.702C350.598 111.602 348.778 112.192 347.338 113.352C347.358 112.582 347.418 111.822 347.528 111.072C349.668 96.0421 362.168 94.6521 362.168 94.6521Z" fill="#DD6936"/>
<path d="M343.969 116.092L347.289 113.382C347.309 113.372 347.319 113.352 347.339 113.352C347.359 112.582 347.419 111.822 347.529 111.072C349.669 96.0421 362.169 94.6521 362.169 94.6521C361.669 92.5421 360.819 90.8321 359.939 89.5021C359.769 89.2521 359.599 89.0121 359.429 88.7821C358.219 87.1721 356.559 85.9721 354.739 85.1021C346.759 81.2621 347.579 74.0021 347.579 74.0021C348.629 69.4921 346.979 67.292 345.689 66.302C345.089 65.842 344.349 65.6021 343.599 65.5021C342.069 65.2821 340.809 64.8421 339.769 64.2921C338.529 63.6421 337.559 62.7021 336.899 61.6121H336.889C331.119 65.9121 327.039 66.922 324.169 66.382L324.119 66.6421C324.119 66.6421 322.809 70.412 321.039 76.022C320.999 76.112 320.979 76.202 320.949 76.302C318.279 84.722 314.599 97.112 312.659 107.162C312.149 109.772 311.759 112.232 311.539 114.412C311.099 118.642 312.889 122.732 316.119 125.242C317.039 125.962 318.069 126.552 319.209 126.972C319.579 127.112 319.969 127.242 320.369 127.352C322.699 128.052 325.609 128.432 329.229 128.222C329.679 128.202 330.129 128.152 330.579 128.072C331.599 127.922 332.609 127.652 333.589 127.302C336.819 126.142 343.019 123.862 344.909 122.762L344.969 122.802C345.689 121.892 346.619 121.322 347.639 120.982V120.972C347.599 120.702 347.569 120.312 347.539 119.842L346.759 120.262C346.379 120.462 345.969 120.562 345.559 120.562C344.819 120.562 344.089 120.232 343.599 119.622C342.729 118.542 342.889 116.962 343.969 116.092ZM325.229 85.5921C324.319 85.5921 323.579 84.852 323.579 83.942C323.579 83.042 324.319 82.302 325.229 82.302C326.139 82.302 326.879 83.042 326.879 83.942C326.879 84.852 326.139 85.5921 325.229 85.5921ZM344.909 90.8421C345.819 90.8421 346.559 91.5821 346.559 92.4921C346.559 93.392 345.819 94.132 344.909 94.132C344.009 94.132 343.269 93.392 343.269 92.4921C343.269 91.5821 344.009 90.8421 344.909 90.8421Z" fill="#FA9664"/>
<path d="M353.069 118.912L355.639 121.402C355.639 121.402 351.149 119.802 347.639 120.982V120.972C347.599 120.702 347.569 120.312 347.539 119.842L350.009 118.502C351.009 117.952 352.249 118.122 353.069 118.912Z" fill="#DD6936"/>
<path d="M346.589 132.362L349.599 126.962C349.599 126.962 348.539 130.712 346.199 135.822C344.729 139.042 344.439 142.672 345.309 146.102L330.579 128.072C331.599 127.922 332.609 127.652 333.589 127.302C336.819 126.142 343.019 123.862 344.909 122.762L344.969 122.802C344.669 123.172 344.409 123.602 344.199 124.102L341.759 130.032C341.239 131.282 341.729 132.712 342.899 133.382C343.319 133.622 343.789 133.742 344.239 133.742C345.179 133.742 346.099 133.242 346.589 132.362Z" fill="#DD6936"/>
<path d="M346.219 149.712L347.649 155.322H347.639C338.279 163.822 326.089 159.232 326.089 159.232C317.909 156.282 314.709 150.152 313.809 143.892C315.659 144.312 317.509 144.472 319.419 144.532C320.099 146.742 321.219 148.882 322.959 150.772C326.349 154.462 331.359 156.352 336.329 155.782C339.619 155.402 343.429 153.922 346.219 149.712Z" fill="white"/>
<path d="M410.429 209.052C405.229 191.142 394.219 184.172 387.929 181.582C387.929 181.582 386.929 190.832 388.279 203.932L380.779 187.592L375.129 175.272L366.729 156.962C365.919 155.212 365.349 153.362 365.079 151.452C364.479 147.132 364.559 139.782 369.839 132.862L371.139 131.002C372.379 129.242 372.949 127.102 372.769 124.962L372.179 118.192L371.849 114.512L370.709 101.462C370.599 100.232 369.559 99.2821 368.319 99.2821C368.069 99.2821 367.829 99.3221 367.609 99.3921C367.239 99.5121 366.909 99.7121 366.639 99.9821C366.209 100.412 365.939 101.012 365.939 101.672V108.262C365.489 107.962 364.999 107.722 364.459 107.582L359.729 106.312C358.069 105.862 356.289 106.112 354.819 107.002L353.729 107.662C352.549 108.372 352.019 109.812 352.459 111.122L352.439 111.702C350.599 111.602 348.779 112.192 347.339 113.352C347.319 113.352 347.309 113.372 347.289 113.382L343.969 116.092C342.889 116.962 342.729 118.542 343.599 119.622C344.089 120.232 344.819 120.562 345.559 120.562C345.969 120.562 346.379 120.462 346.759 120.262L347.539 119.842L350.009 118.502C351.009 117.952 352.249 118.122 353.069 118.912L355.639 121.402C355.639 121.402 351.149 119.802 347.639 120.982C346.619 121.322 345.689 121.892 344.969 122.802C344.669 123.172 344.409 123.602 344.199 124.102L341.759 130.032C341.239 131.282 341.729 132.712 342.899 133.382C343.319 133.622 343.789 133.742 344.239 133.742C345.179 133.742 346.099 133.242 346.589 132.362L349.599 126.962C349.599 126.962 348.539 130.712 346.199 135.822C344.729 139.042 344.439 142.672 345.309 146.102L346.219 149.712L347.649 155.322L349.069 160.932C349.309 161.902 349.519 162.872 349.699 163.852C351.449 173.522 361.639 228.932 367.719 241.252C367.719 241.252 369.939 246.132 374.729 247.922C376.989 248.782 379.819 248.942 383.269 247.562C386.099 246.442 389.329 244.282 392.999 240.612C392.999 240.612 402.669 226.272 410.439 209.052H410.429Z" fill="#FA9664"/>
<path d="M319.418 144.532C316.898 136.362 320.369 127.352 320.369 127.352C322.699 128.052 325.608 128.432 329.228 128.222C329.678 128.202 330.129 128.152 330.579 128.072L345.309 146.102L346.218 149.712C343.428 153.922 339.619 155.402 336.329 155.782C331.359 156.352 326.349 154.462 322.959 150.772C321.219 148.882 320.098 146.742 319.418 144.532Z" fill="#FA9664"/>
<path d="M344.909 90.842C345.819 90.842 346.559 91.582 346.559 92.492C346.559 93.392 345.819 94.132 344.909 94.132C344.009 94.132 343.269 93.392 343.269 92.492C343.269 91.582 344.009 90.842 344.909 90.842Z" fill="black"/>
<path d="M325.229 82.302C326.139 82.302 326.879 83.042 326.879 83.942C326.879 84.852 326.139 85.592 325.229 85.592C324.319 85.592 323.579 84.852 323.579 83.942C323.579 83.042 324.319 82.302 325.229 82.302Z" fill="black"/>
<path d="M319.209 126.972C319.579 127.112 319.969 127.242 320.369 127.352C320.369 127.352 316.899 136.362 319.419 144.532C317.509 144.472 315.659 144.312 313.809 143.892C312.489 134.702 316.119 125.242 316.119 125.242C317.039 125.962 318.069 126.552 319.209 126.972Z" fill="white"/>
<path d="M289.459 134.382L287.429 146.982C285.609 145.862 283.869 144.652 282.229 143.302L289.459 134.382Z" fill="#CE3F38"/>
<path d="M282.228 143.302L289.458 134.382L287.428 146.982C298.218 153.622 311.608 156.892 321.558 164.862C338.208 178.192 338.778 194.872 337.378 214.812C336.348 229.522 338.048 246.152 348.418 257.592C356.998 267.072 368.968 272.942 381.118 271.072L374.728 247.932V247.922C369.938 246.132 367.718 241.252 367.718 241.252C361.638 228.932 351.448 173.522 349.698 163.852C349.518 162.872 349.308 161.902 349.068 160.932L347.648 155.322H347.638C338.278 163.822 326.088 159.232 326.088 159.232C317.908 156.282 314.708 150.152 313.808 143.892C312.108 143.502 310.398 142.892 308.648 141.902C304.738 139.702 301.918 136.422 300.428 132.212C297.868 124.972 301.288 114.852 297.848 108.522C291.138 109.442 283.728 110.702 277.358 111.862C276.668 111.992 275.978 112.102 275.288 112.202C274.118 113.952 273.018 115.762 272.468 118.042C270.738 125.252 271.758 130.992 276.128 136.942C277.918 139.382 279.978 141.472 282.228 143.302ZM406.358 175.072C401.738 171.832 396.668 169.662 391.828 167.142C387.448 164.862 383.248 162.292 379.738 158.372C374.178 152.182 378.068 141.782 380.348 134.902C380.768 133.632 382.438 129.102 383.358 124.722C380.178 122.072 376.838 119.502 373.378 117.112L372.178 118.192L372.768 124.962C372.948 127.102 372.378 129.242 371.138 131.002L369.838 132.862C364.558 139.782 364.478 147.132 365.078 151.452C365.348 153.362 365.918 155.212 366.728 156.962L375.128 175.272L390.598 168.462C388.898 170.402 387.218 172.652 385.708 175.272C385.708 175.272 404.308 175.782 413.608 201.552C414.708 198.742 415.728 195.902 416.598 193.082C415.228 185.832 412.098 179.092 406.358 175.072ZM402.818 159.002C403.058 159.172 403.308 159.332 403.558 159.482C407.768 162.002 412.008 161.952 416.138 160.672C415.838 160.172 415.518 159.692 415.188 159.212C411.718 154.222 404.718 145.212 395.398 135.812C395.008 140.162 394.538 144.292 395.068 146.812C396.098 151.712 398.588 156.172 402.818 159.002ZM370.808 307.182C367.448 309.112 364.108 310.202 360.688 310.442C357.378 310.672 354.008 310.112 350.508 308.742C336.438 303.222 335.118 290.352 335.568 277.122C335.678 273.842 335.798 268.762 335.008 264.092C334.278 259.842 332.808 255.942 329.888 254.062C324.518 250.602 318.958 253.682 314.528 258.382C310.628 262.522 307.598 267.912 306.348 271.192C302.218 282.022 301.558 295.922 304.848 307.332C306.298 307.842 307.818 308.332 309.408 308.802C318.768 311.582 330.478 313.592 344.908 313.752C349.908 313.812 355.238 313.642 360.908 313.202C365.128 312.882 369.548 312.402 374.158 311.762C377.958 311.232 381.198 309.132 383.268 306.172V306.162C384.698 304.122 385.568 301.682 385.698 299.072C384.778 299.232 383.878 299.472 383.008 299.802C378.578 301.472 374.868 304.852 370.808 307.182ZM308.548 187.792C303.588 183.782 297.148 182.312 291.518 179.382C289.688 178.432 287.688 177.602 285.688 176.702V202.632L281.078 252.562L278.498 280.562C278.088 284.992 279.198 289.322 281.518 292.932C282.838 294.992 284.548 296.822 286.608 298.292C285.928 293.522 285.858 288.442 286.098 283.022C286.548 273.042 289.088 263.022 293.668 254.112C293.868 253.712 294.078 253.322 294.288 252.932C302.388 237.962 320.078 226.552 320.138 208.082C320.158 199.622 314.878 192.922 308.548 187.792Z" fill="#EF7369"/>
<path d="M383.268 306.172C381.198 309.132 377.958 311.232 374.158 311.762C369.548 312.402 365.128 312.882 360.908 313.202C355.238 313.642 349.908 313.812 344.908 313.752C330.478 313.592 318.768 311.582 309.408 308.802C307.818 308.332 306.298 307.842 304.848 307.332C301.698 306.222 298.859 305.042 296.309 303.832C292.709 302.122 289.678 300.362 287.188 298.702C286.988 298.572 286.798 298.432 286.608 298.292C284.548 296.822 282.838 294.992 281.518 292.932L280.908 320.922L280.458 341.402H385.708L383.268 306.172Z" fill="#7A9BFC"/>
<path d="M287.429 146.982L286.459 152.982C286.299 153.942 286.169 154.912 286.059 155.882C283.719 155.572 279.159 154.272 274.509 152.832L282.229 143.302C283.869 144.652 285.609 145.862 287.429 146.982Z" fill="#CE3F38"/>
<path d="M276.129 136.942C271.759 130.992 270.739 125.252 272.469 118.042C273.019 115.762 274.119 113.952 275.289 112.202C272.719 112.602 270.139 112.862 267.559 112.972V112.982C267.559 112.982 269.429 131.752 267.899 150.712V150.722C269.959 151.392 272.249 152.132 274.509 152.832L282.229 143.302C279.979 141.472 277.919 139.382 276.129 136.942ZM300.429 132.212C301.919 136.422 304.739 139.702 308.649 141.902C310.399 142.892 312.109 143.502 313.809 143.892C312.489 134.702 316.119 125.242 316.119 125.242C312.889 122.732 311.099 118.642 311.539 114.412C311.759 112.232 312.149 109.772 312.659 107.162C309.039 107.162 303.709 107.712 297.849 108.522C301.289 114.852 297.869 124.972 300.429 132.212ZM383.719 280.512L381.119 271.072C368.969 272.942 356.999 267.072 348.419 257.592C338.049 246.152 336.349 229.522 337.379 214.812C338.779 194.872 338.209 178.192 321.559 164.862C311.609 156.892 298.219 153.622 287.429 146.982L286.459 152.982C286.299 153.942 286.169 154.912 286.059 155.882C285.819 158.082 285.689 160.292 285.689 162.502V176.702C287.689 177.602 289.689 178.432 291.519 179.382C297.149 182.312 303.589 183.782 308.549 187.792C314.879 192.922 320.159 199.622 320.139 208.082C320.079 226.552 302.389 237.962 294.289 252.932C294.079 253.322 293.869 253.712 293.669 254.112C289.089 263.022 286.549 273.042 286.099 283.022C285.859 288.442 285.929 293.522 286.609 298.292C286.799 298.432 286.989 298.572 287.189 298.702C289.679 300.362 292.709 302.122 296.309 303.832C298.859 305.042 301.699 306.222 304.849 307.332C301.559 295.922 302.219 282.022 306.349 271.192C307.599 267.912 310.629 262.522 314.529 258.382C318.959 253.682 324.519 250.602 329.889 254.062C332.809 255.942 334.279 259.842 335.009 264.092C335.799 268.762 335.679 273.842 335.569 277.122C335.119 290.352 336.439 303.222 350.509 308.742C354.009 310.112 357.379 310.672 360.689 310.442C364.109 310.202 367.449 309.112 370.809 307.182C374.869 304.852 378.579 301.472 383.009 299.802C383.879 299.472 384.779 299.232 385.699 299.072C385.709 298.802 385.709 298.522 385.709 298.242C385.659 294.662 385.589 290.832 385.489 286.912L383.719 280.512ZM416.139 160.672C412.009 161.952 407.769 162.002 403.559 159.482C403.309 159.332 403.059 159.172 402.819 159.002C398.589 156.172 396.099 151.712 395.069 146.812C394.539 144.292 395.009 140.162 395.399 135.812C391.729 132.102 387.689 128.332 383.359 124.722C382.439 129.102 380.769 133.632 380.349 134.902C378.069 141.782 374.179 152.182 379.739 158.372C383.249 162.292 387.449 164.862 391.829 167.142C396.669 169.662 401.739 171.832 406.359 175.072C412.099 179.092 415.229 185.832 416.599 193.082C418.599 186.682 419.909 180.362 419.999 174.632C420.079 169.702 418.679 164.882 416.139 160.672Z" fill="#FF8983"/>
<path d="M267.559 112.982C267.559 112.982 269.429 131.752 267.899 150.712C265.599 149.962 263.579 149.272 262.189 148.802C263.359 134.232 261.029 113.022 261.029 113.022V113.012C263.209 113.102 265.389 113.092 267.559 112.972V112.982Z" fill="white"/>
<path d="M261.029 113.022V113.012C255.659 112.812 250.309 112.042 245.079 110.702L178.649 93.6821L163.389 76.8421C162.409 75.7621 160.939 75.2421 159.499 75.4821L157.489 75.8021L157.339 76.0321L155.929 75.1521C154.679 74.3621 153.069 74.4121 151.859 75.2821L148.219 77.9021L148.229 78.0721C147.229 78.1021 146.279 78.4821 145.539 79.1721L142.059 82.3821L136.039 82.8621C134.869 83.0021 134.029 84.0621 134.169 85.2421C134.299 86.3221 135.219 87.1321 136.299 87.1321C136.359 87.1321 136.409 87.1221 136.469 87.1221L142.279 86.6421C143.589 86.5321 144.899 86.6621 146.159 87.0321L151.049 88.4521C152.739 88.9421 153.719 90.7021 153.239 92.4021C152.849 93.8121 151.559 94.7521 150.149 94.7521C149.899 94.7521 149.649 94.7221 149.399 94.6621L139.389 92.2521C137.969 91.9121 136.539 92.7621 136.159 94.1721C136.099 94.4121 136.069 94.6421 136.069 94.8821C136.069 96.0321 136.809 97.1021 137.969 97.4521L149.419 100.962C150.829 101.392 152.169 102.002 153.419 102.782L156.579 104.742C158.969 106.232 161.779 106.902 164.579 106.662L167.179 106.442C168.399 106.332 169.629 106.552 170.739 107.062L260.189 148.112C260.189 148.112 260.939 148.372 262.189 148.802C263.359 134.232 261.029 113.022 261.029 113.022Z" fill="#FA9664"/>
<path d="M311.538 114.412C311.368 117.969 312.719 121.5 315.196 123.904C317.648 126.388 321.171 127.312 324.619 127.655C326.347 127.817 328.128 127.852 329.846 127.676C331.584 127.574 333.202 126.989 334.901 126.417C336.585 125.852 338.265 125.273 339.936 124.672C341.615 124.09 343.291 123.503 344.908 122.761C341.823 124.565 338.463 125.812 335.165 127.14C333.541 127.806 331.775 128.452 329.947 128.618C328.131 128.83 326.335 128.801 324.525 128.65C322.72 128.472 320.93 128.099 319.213 127.47C317.473 126.849 315.899 125.78 314.65 124.44C313.398 123.096 312.467 121.476 311.916 119.749C311.396 118.011 311.254 116.172 311.538 114.412Z" fill="#C44C22"/>
<path d="M395.269 219.172C393.691 216.226 392.213 213.235 390.749 210.236C389.275 207.242 387.874 204.216 386.47 201.19C385.089 198.154 383.71 195.117 382.4 192.048L380.44 187.443C379.82 185.892 379.169 184.356 378.577 182.793C380.156 185.738 381.634 188.73 383.099 191.728C384.573 194.722 385.976 197.748 387.378 200.774C388.758 203.811 390.137 206.848 391.444 209.918C392.763 212.982 394.066 216.054 395.269 219.172Z" fill="#C44C22"/>
<path d="M368.899 114.772C368.408 113.705 368.012 112.613 367.649 111.513C367.338 110.437 366.776 109.549 365.95 108.893C365.556 108.564 365.081 108.297 364.602 108.118C364.115 107.943 363.512 107.783 362.98 107.589C361.881 107.218 360.792 106.813 359.729 106.312C360.9 106.411 362.045 106.606 363.18 106.835C363.763 106.948 364.283 107.064 364.904 107.221C365.518 107.417 366.071 107.719 366.578 108.115C367.569 108.904 368.239 110.126 368.401 111.316C368.622 112.454 368.808 113.601 368.899 114.772Z" fill="#C44C22"/>
<path d="M349.598 126.962C348.872 130.08 347.767 133.104 346.516 136.051C345.323 138.922 344.993 142.13 345.611 145.162C346.317 148.219 347.133 151.346 347.822 154.451C348.511 157.567 349.276 160.674 349.697 163.852C349.249 162.312 348.883 160.77 348.387 159.246L347.076 154.64C346.206 151.556 345.381 148.511 344.63 145.355C343.994 142.128 344.385 138.688 345.817 135.736C346.52 134.306 347.178 132.861 347.802 131.396C348.451 129.941 349.036 128.459 349.598 126.962Z" fill="#C44C22"/>
<path d="M355.638 121.402C353.744 120.994 351.813 120.801 349.95 120.959C348.105 121.129 346.281 121.787 345.251 123.252C344.986 123.602 344.776 123.978 344.602 124.405L344.036 125.74C343.642 126.623 343.266 127.514 342.855 128.391L342.245 129.708C342.021 130.162 341.837 130.529 341.798 130.978C341.677 131.862 342.11 132.809 342.898 133.381C341.989 133.005 341.341 132.02 341.309 130.961C341.283 130.431 341.483 129.888 341.64 129.457L342.134 128.092C342.459 127.18 342.819 126.282 343.161 125.377L343.699 124.03C343.882 123.559 344.135 123.077 344.451 122.653C345.079 121.813 345.958 121.139 346.921 120.751C347.888 120.376 348.904 120.191 349.906 120.183C351.911 120.151 353.857 120.626 355.638 121.402Z" fill="#C44C22"/>
<path d="M364.829 122.252C364.086 120.966 363.391 119.656 362.674 118.357C362.312 117.709 361.98 117.046 361.632 116.392C361.295 115.716 360.944 115.135 360.466 114.605C359.524 113.563 358.259 112.838 356.906 112.553C356.247 112.402 355.509 112.419 354.762 112.353L352.544 112.203L352.579 112.204C352.082 112.173 351.677 112.186 351.234 112.238C350.8 112.292 350.37 112.377 349.952 112.507C349.116 112.764 348.327 113.18 347.641 113.726L347.341 113.833C347.512 113.833 347.624 113.731 347.624 113.731C347.633 113.721 347.59 113.768 347.505 113.811L347.593 113.754L344.573 116.153C344.309 116.367 344.078 116.528 343.911 116.726C343.735 116.928 343.598 117.167 343.511 117.425C343.335 117.941 343.366 118.534 343.608 119.039C344.071 120.088 345.419 120.611 346.533 120.151L350.008 118.502C348.914 119.192 347.83 119.849 346.697 120.513C345.458 121.202 343.698 120.653 343.025 119.339C342.673 118.702 342.581 117.921 342.778 117.206C342.876 116.849 343.044 116.508 343.273 116.211C343.506 115.902 343.802 115.682 344.031 115.486L346.984 113.009L347.072 112.952C347.005 112.987 346.977 113.019 347.001 112.997C347.012 112.986 347.145 112.87 347.336 112.871L347.036 112.977C347.809 112.348 348.703 111.865 349.654 111.563C350.13 111.413 350.62 111.302 351.117 111.248C351.605 111.192 352.14 111.186 352.578 111.221L352.614 111.222L354.831 111.394C355.557 111.462 356.315 111.475 357.103 111.667C358.646 112.023 360.046 112.915 361.014 114.141C361.503 114.739 361.88 115.463 362.165 116.131C362.468 116.808 362.788 117.476 363.077 118.16C363.662 119.523 364.27 120.876 364.829 122.252Z" fill="#C44C22"/>
<path d="M405.838 157.712C404.396 158.337 403.015 159.073 401.685 159.888C400.343 160.681 399.052 161.555 397.819 162.501C396.577 163.434 395.382 164.427 394.242 165.478C393.09 166.517 392.028 167.653 390.979 168.785L390.821 168.955L390.608 168.954H390.598L390.968 168.786C389.247 170.727 387.699 172.811 386.288 174.994C385.585 176.09 384.939 177.221 384.318 178.368C383.674 179.505 383.149 180.703 382.565 181.882C382.958 180.629 383.396 179.387 383.914 178.173C384.431 176.959 385.037 175.785 385.67 174.626C386.936 172.302 388.494 170.137 390.229 168.137L390.374 167.97L390.599 167.969H390.609L390.238 168.138C392.343 165.75 394.721 163.62 397.346 161.837C398.662 160.954 400.029 160.15 401.438 159.434C402.86 158.75 404.314 158.114 405.838 157.712Z" fill="#A51E1E"/>
<path d="M290.449 128.282C290 132.327 289.446 136.356 288.88 140.382C288.315 144.408 287.661 148.42 287.052 152.441C286.739 154.442 286.424 156.426 286.287 158.444C286.111 160.458 286.128 162.468 286.074 164.507L285.935 170.605C285.852 172.638 285.803 174.67 285.69 176.703C285.577 174.67 285.528 172.638 285.445 170.605L285.306 164.507C285.145 160.443 285.421 156.314 286.068 152.28C286.759 148.275 287.398 144.261 288.126 140.26L289.233 134.262C289.639 132.269 290.012 130.27 290.449 128.282Z" fill="#A51E1E"/>
<path d="M309.409 308.802C309.683 311.514 309.848 314.228 309.995 316.942C310.155 319.656 310.233 322.373 310.312 325.089C310.367 327.806 310.42 330.523 310.395 333.242L310.355 337.32C310.305 338.68 310.289 340.04 310.209 341.401C310.063 340.046 309.981 338.688 309.865 337.332L309.626 333.26C309.469 330.545 309.39 327.829 309.313 325.113C309.259 322.396 309.207 319.679 309.23 316.96C309.242 314.243 309.271 311.524 309.409 308.802Z" fill="#3660C9"/>
<path d="M374.159 311.762C374.159 311.762 376.249 322.722 377.089 333.492C377.299 336.202 377.429 338.902 377.429 341.402" fill="#3660C9"/>
<path d="M344.909 313.762C345.219 315.493 345.753 317.168 346.453 318.76C347.14 320.357 347.995 321.877 349.016 323.269C351.047 326.063 353.725 328.343 356.771 329.938C359.809 331.57 363.191 332.486 366.619 333.026C367.476 333.172 368.346 333.235 369.212 333.344L371.827 333.495L374.454 333.545C375.33 333.516 376.208 333.499 377.089 333.491L377.099 333.492L377.089 333.493C373.611 334.018 370.054 334.174 366.523 333.791C362.998 333.42 359.481 332.503 356.304 330.822C353.142 329.141 350.339 326.712 348.388 323.706C346.432 320.721 345.144 317.285 344.909 313.762Z" fill="#3660C9"/>
<path d="M280.909 320.922C282.752 320.154 284.416 319.077 285.981 317.908C287.528 316.711 288.965 315.38 290.235 313.899C292.807 310.949 294.723 307.495 296.309 303.832C295.48 307.741 293.64 311.482 290.991 314.553C289.656 316.079 288.124 317.438 286.428 318.543C284.736 319.644 282.875 320.522 280.909 320.922Z" fill="#3660C9"/>
<path d="M160.979 78.3121C159.827 77.8351 158.725 77.2761 157.645 76.6831C157.1 76.3941 156.572 76.0781 156.036 75.7751C155.755 75.6191 155.526 75.4561 155.287 75.3601C155.043 75.2551 154.786 75.1811 154.524 75.1391C154.002 75.0361 153.456 75.0871 152.946 75.2461C152.688 75.3201 152.442 75.4361 152.21 75.5751L151.443 76.0621C150.402 76.7211 149.34 77.3511 148.22 77.9011C149.097 77.0131 150.032 76.2071 150.988 75.4281C151.232 75.2291 151.449 75.0421 151.724 74.8451C152.004 74.6451 152.308 74.4741 152.633 74.3511C153.285 74.1121 154.002 74.0371 154.693 74.1531C155.368 74.2571 156.066 74.6331 156.538 74.9741C157.045 75.3231 157.562 75.6561 158.058 76.0231C159.06 76.7421 160.046 77.4831 160.979 78.3121Z" fill="#C44C22"/>
<path d="M157.179 78.802C154.374 78.912 151.592 78.695 148.85 78.576C147.512 78.459 146.397 78.876 145.391 79.84C144.324 80.735 143.213 81.583 142.059 82.383C142.949 81.297 143.883 80.259 144.86 79.268C145.298 78.775 145.933 78.209 146.644 77.923C147.362 77.612 148.164 77.544 148.885 77.578C151.7 77.732 154.451 78.13 157.179 78.802Z" fill="#C44C22"/>
<path d="M154.599 81.382C151.537 82.021 148.451 82.357 145.359 82.62C142.265 82.853 139.164 83.01 136.039 82.862C139.101 82.221 142.187 81.885 145.279 81.624C148.374 81.393 151.474 81.237 154.599 81.382Z" fill="#C44C22"/>
<path d="M330.579 85.1121C329.882 87.4491 329.008 89.6981 328.072 91.9161C327.147 94.1401 326.118 96.3121 325.068 98.4741L323.475 101.586C323.197 102.181 323.556 103.01 324.353 103.214C326.52 103.801 328.881 103.714 331.24 103.102C329.231 104.48 326.608 105.121 324.051 104.745C323.29 104.669 322.439 104.178 322.006 103.448C321.544 102.732 321.412 101.784 321.695 100.943L321.815 100.638L321.914 100.427L322.109 100.021L322.499 99.2081L323.28 97.5841C324.365 95.4401 325.471 93.3061 326.681 91.2251C327.879 89.1381 329.141 87.0811 330.579 85.1121Z" fill="#C44C22"/>
<path d="M319.849 108.532C321.581 109.597 323.465 110.344 325.394 110.767C327.324 111.165 329.316 111.271 331.238 110.881C331.723 110.818 332.187 110.647 332.663 110.536C332.898 110.469 333.14 110.423 333.37 110.338L334.051 110.057C334.502 109.862 334.98 109.724 335.412 109.483L336.714 108.767C337.167 108.555 337.558 108.244 337.968 107.96L339.205 107.105C339.995 106.486 340.736 105.8 341.547 105.172C340.902 105.954 340.221 106.719 339.526 107.476L338.361 108.486C337.97 108.823 337.582 109.166 337.133 109.426C335.446 110.638 333.466 111.431 331.417 111.864C329.35 112.263 327.194 112.101 325.201 111.52C323.203 110.945 321.351 109.909 319.849 108.532Z" fill="#C44C22"/>
<path d="M340.809 84.4621C341.911 83.9741 343.1 83.8321 344.284 83.8441C345.469 83.8721 346.665 84.1031 347.793 84.5651C348.919 85.0241 349.976 85.7301 350.794 86.6521C351.618 87.5561 352.192 88.7091 352.299 89.9021C351.431 89.0731 350.643 88.3791 349.751 87.8281C348.887 87.2611 347.986 86.8081 347.035 86.4151C345.126 85.6241 343.072 85.1361 340.809 84.4621Z" fill="#3E2B7C"/>
<path d="M321.029 76.0221L321.039 76.0171H321.04C321.841 75.6671 322.66 75.5891 323.468 75.5991C324.275 75.6241 325.077 75.7681 325.844 76.0401C326.61 76.3141 327.344 76.7111 327.988 77.2401C328.617 77.7881 329.172 78.4601 329.429 79.2921C328.585 79.0611 327.9 78.8281 327.209 78.6051C326.518 78.3871 325.849 78.1691 325.177 77.9251C324.504 77.6841 323.826 77.4321 323.14 77.1341C322.453 76.8271 321.761 76.5031 321.039 76.0271L321.029 76.0221Z" fill="#3E2B7C"/>
<path d="M388.558 79.7121C388.228 80.3021 387.898 80.8821 387.628 81.5121C387.278 82.3621 386.798 83.6421 386.478 85.0621C386.468 85.1221 386.448 85.1821 386.438 85.2421C386.428 85.3021 386.408 85.3721 386.398 85.4321C386.088 86.9221 385.948 88.5221 386.278 89.9721C386.278 89.9721 386.868 91.9821 386.718 94.5521C386.528 98.0021 384.988 102.472 378.868 104.372H378.858L377.488 102.432L377.418 102.332L377.348 102.232L371.278 93.6821L367.738 96.5521L367.608 96.6521L367.468 96.7621L362.568 100.732C362.778 98.4221 362.588 96.4021 362.168 94.6521C361.668 92.5421 360.818 90.8321 359.938 89.5021C359.768 89.2521 359.598 89.0121 359.428 88.7821C358.218 87.1721 356.558 85.9721 354.738 85.1021C346.758 81.2621 347.578 74.0021 347.578 74.0021C348.628 69.4921 346.978 67.2921 345.688 66.3021C345.088 65.8421 344.348 65.6021 343.598 65.5021C342.068 65.2821 340.808 64.8421 339.768 64.2921C338.528 63.6421 337.558 62.7021 336.898 61.6121C335.888 59.9821 335.548 58.0121 335.938 56.1921C335.958 56.1021 335.978 56.0221 335.998 55.9321C336.018 55.8521 336.038 55.7721 336.068 55.6921C336.118 55.4821 336.188 55.2821 336.268 55.0821C336.768 53.8021 337.678 52.6521 339.008 51.8321C339.718 51.4021 340.468 51.1121 341.178 51.0021C341.798 50.9121 342.398 50.9521 342.938 51.1521C343.178 51.2421 343.418 51.3221 343.668 51.4021C347.178 52.4821 350.948 52.1421 354.258 50.6421L354.508 50.5321C355.248 50.1921 355.958 49.7821 356.638 49.3221C356.658 49.3121 356.668 49.3021 356.688 49.2921C356.908 49.1421 357.138 48.9821 357.348 48.8221C358.668 47.8321 360.128 47.0621 361.688 46.5521C362.118 46.4121 362.548 46.2921 362.998 46.2021L363.268 46.1421C363.998 46.0021 364.758 45.9121 365.508 45.8921C368.038 45.8321 370.998 46.4321 373.848 48.5721C376.258 50.3821 377.948 52.9721 378.848 55.8421C379.468 57.8421 380.738 60.7121 383.198 62.6621C384.418 63.6421 385.578 64.6921 386.498 65.9421C388.738 68.9921 391.578 74.4421 388.558 79.7121Z" fill="#3E2B7C"/>
<path d="M361.688 46.5521C360.128 47.0621 358.668 47.8321 357.348 48.8221C357.168 48.9621 356.978 49.0921 356.788 49.2221C356.758 49.2421 356.718 49.2721 356.688 49.2921C356.668 49.3021 356.658 49.3121 356.638 49.3221C356.618 49.3321 356.608 49.3421 356.588 49.3521C355.888 49.8321 355.148 50.2421 354.388 50.5921C351.048 52.1321 347.228 52.4921 343.668 51.4021C343.418 51.3221 343.178 51.2421 342.938 51.1521C342.438 50.9721 341.888 50.9221 341.318 50.9821C341.268 50.9921 341.228 50.9921 341.178 51.0021C341.128 51.0121 341.088 51.0221 341.038 51.0321C340.368 51.1521 339.668 51.4321 339.008 51.8321C337.718 52.6221 336.828 53.7321 336.328 54.9621H336.318C336.298 55.0021 336.288 55.0421 336.268 55.0821C336.248 55.1221 336.238 55.1721 336.228 55.2121H336.218C336.128 55.4521 336.058 55.6821 335.998 55.9321C335.518 57.8221 335.838 59.9021 336.898 61.6121H336.888C331.118 65.9121 327.038 66.9221 324.168 66.3821C318.628 65.3621 317.618 58.5621 317.618 58.5621C317.608 58.4821 317.598 58.4021 317.598 58.3321L317.558 57.942V57.9321C317.048 52.2821 319.308 49.2021 321.738 47.5321C323.788 46.1221 326.318 45.5721 328.798 45.7821C330.078 45.8921 331.278 45.9521 332.398 45.9621C332.488 45.9721 332.568 45.9721 332.648 45.9721H332.898C339.508 46.0121 343.418 44.6221 344.998 43.9221C345.088 43.8821 345.188 43.8421 345.278 43.8021C345.328 43.7821 345.368 43.7621 345.418 43.7421C345.468 43.7221 345.528 43.7021 345.578 43.6821C346.818 43.1621 348.108 42.7721 349.428 42.5721C357.388 41.3821 361.688 46.5521 361.688 46.5521Z" fill="#3E2B7C"/>
<path d="M363.598 83.1821C362.948 82.3421 362.288 81.5821 361.658 80.8421C359.438 78.2621 357.528 76.0321 357.228 72.1021C356.858 67.5521 355.428 65.0921 351.928 63.0121C349.878 61.8021 347.669 61.7921 345.529 61.7821C343.839 61.7721 342.088 61.7621 340.438 61.1621C338.348 60.4021 336.608 58.2821 336.118 55.8921C336.098 55.8521 336.099 55.8021 336.089 55.7521L336.078 55.7221C336.078 55.7121 336.078 55.7021 336.068 55.6921C336.038 55.7721 336.018 55.8521 335.998 55.9321C335.978 56.0221 335.958 56.1021 335.938 56.1921C336.498 58.5621 338.248 60.6321 340.358 61.4021C342.048 62.0121 343.818 62.0221 345.518 62.0321C347.628 62.0421 349.809 62.0521 351.809 63.2321C355.219 65.2621 356.618 67.6721 356.978 72.1221C357.288 76.1321 359.228 78.3921 361.468 81.0021C362.098 81.7421 362.748 82.5021 363.398 83.3421C364.968 85.3621 366.208 87.9821 366.898 90.7121C367.428 92.7321 367.628 94.7821 367.478 96.6421C367.478 96.6821 367.478 96.7221 367.468 96.7621L367.608 96.6521L367.738 96.5521C367.868 94.7021 367.668 92.6621 367.138 90.6521C366.438 87.8921 365.188 85.2421 363.598 83.1821ZM379.218 92.8921C378.728 90.9021 377.738 88.9821 376.438 87.4821C375.558 86.4721 374.558 85.4921 373.488 84.4521C370.308 81.3621 367.018 78.1521 366.968 73.9621C366.938 72.6021 367.028 71.1921 367.108 69.8221C367.388 65.0321 367.668 60.0821 363.688 56.3521C362.348 55.1021 360.648 54.2321 359.008 53.3821L358.498 53.1221C357.108 52.4021 355.648 51.6121 354.508 50.5321L354.258 50.6421C354.268 50.6521 354.288 50.6721 354.298 50.6821C355.478 51.8021 356.968 52.6121 358.378 53.3421L358.898 53.6121C360.518 54.4421 362.208 55.3021 363.518 56.5321C367.418 60.1921 367.128 65.0721 366.858 69.8021C366.778 71.1721 366.688 72.5921 366.718 73.9621C366.778 78.2621 370.098 81.5021 373.318 84.6321C374.378 85.6721 375.378 86.6421 376.248 87.6421C377.518 89.1221 378.488 91.0021 378.978 92.9521C379.118 93.5221 379.218 94.1321 379.288 94.7521C379.458 96.5721 379.268 100.472 377.348 102.232L377.418 102.332L377.488 102.432L377.498 102.422C379.518 100.602 379.709 96.5921 379.529 94.7321C379.469 94.0921 379.368 93.4721 379.218 92.8921ZM382.608 80.3421C381.968 79.7121 381.288 79.1121 380.618 78.5421C379.499 77.5621 378.328 76.5521 377.408 75.3521C374.838 72.0321 375.198 68.4821 375.578 64.7121C375.718 63.3521 375.858 61.9421 375.858 60.5321C375.848 54.5821 372.128 51.9821 367.268 49.2121C365.458 48.1821 364.258 47.2621 363.268 46.1421L362.998 46.2021C363.008 46.2221 363.028 46.2321 363.038 46.2521C364.048 47.4121 365.278 48.3621 367.148 49.4321C371.928 52.1621 375.598 54.7121 375.608 60.5321C375.608 61.9321 375.468 63.3321 375.328 64.6921C374.938 68.5021 374.578 72.1121 377.208 75.5121C378.148 76.7221 379.328 77.7421 380.458 78.7321C381.118 79.3021 381.798 79.8921 382.428 80.5221C384.078 82.1621 385.358 83.7221 386.328 85.3021C386.358 85.3421 386.378 85.3921 386.398 85.4321C386.408 85.3721 386.428 85.3021 386.438 85.2421C386.448 85.1821 386.468 85.1221 386.478 85.0621C385.498 83.5021 384.228 81.9521 382.608 80.3421Z" fill="#5E4DDB"/>
<path d="M336.259 54.962C334.169 55.112 332.289 56.522 330.299 58.012C329.149 58.872 327.969 59.762 326.679 60.462C323.559 62.142 319.819 60.392 317.669 58.052C317.629 58.012 317.609 57.982 317.559 57.942L317.599 58.332C319.199 60.022 321.599 61.382 323.999 61.382C324.949 61.382 325.899 61.172 326.799 60.682C328.109 59.972 329.299 59.082 330.449 58.212C332.389 56.752 334.219 55.372 336.219 55.212H336.229C336.239 55.172 336.249 55.122 336.269 55.082C336.289 55.042 336.299 55.002 336.319 54.962H336.259ZM341.269 50.922C339.919 49.382 337.889 48.432 335.909 47.512C334.899 47.032 333.859 46.542 332.899 45.972H332.649C332.569 45.972 332.489 45.972 332.399 45.962C332.459 46.012 332.519 46.042 332.579 46.082C333.599 46.702 334.719 47.222 335.809 47.732C337.829 48.682 339.719 49.572 341.039 51.032C341.089 51.022 341.129 51.012 341.179 51.002C341.229 50.992 341.269 50.992 341.319 50.982C341.309 50.962 341.289 50.942 341.269 50.922ZM356.779 49.212C355.529 47.812 353.739 46.932 351.999 46.152C351.349 45.852 350.489 45.562 349.579 45.252C348.279 44.822 346.809 44.332 345.579 43.682C345.529 43.702 345.469 43.722 345.419 43.742C345.369 43.762 345.329 43.782 345.279 43.802C345.299 43.822 345.329 43.832 345.359 43.852C346.629 44.532 348.159 45.042 349.499 45.492C350.399 45.792 351.259 46.082 351.899 46.372C353.599 47.152 355.359 48.002 356.589 49.352C356.609 49.342 356.619 49.332 356.639 49.322C356.659 49.312 356.669 49.302 356.689 49.292C356.719 49.272 356.759 49.242 356.789 49.222L356.779 49.212Z" fill="#5E4DDB"/>
<path d="M377.765 53.229C376.729 51.453 375.363 49.874 373.697 48.714C372.032 47.559 370.149 46.725 368.16 46.426C366.178 46.108 364.138 46.26 362.233 46.853C361.272 47.103 360.351 47.519 359.475 47.991C358.574 48.469 357.833 49.044 356.951 49.678L356.897 49.71L356.847 49.74L356.901 49.709C354.395 51.431 351.389 52.452 348.335 52.504C346.811 52.531 345.281 52.349 343.817 51.914C343.45 51.82 343.085 51.669 342.742 51.556C342.448 51.45 342.128 51.399 341.801 51.397C341.144 51.388 340.479 51.578 339.848 51.866C338.593 52.443 337.498 53.418 336.847 54.658C336.219 55.903 335.927 57.353 336.136 58.768C336.329 60.175 336.918 61.55 337.865 62.646C338.338 63.194 338.899 63.669 339.518 64.055C340.148 64.425 340.836 64.694 341.501 65.022C340.819 64.748 340.099 64.539 339.432 64.204C338.776 63.847 338.168 63.393 337.641 62.852C336.596 61.766 335.848 60.365 335.6 58.849C335.323 57.335 335.568 55.75 336.219 54.338C336.9 52.935 338.069 51.773 339.487 51.095C340.192 50.762 340.978 50.519 341.804 50.519C342.215 50.518 342.635 50.576 343.039 50.715C343.399 50.829 343.72 50.959 344.069 51.044C345.442 51.434 346.883 51.588 348.31 51.545C351.164 51.435 353.994 50.527 356.377 48.936L356.431 48.904L356.481 48.874L356.427 48.906C358.041 47.687 359.95 46.549 361.998 46.026C364.03 45.407 366.214 45.372 368.279 45.768C370.35 46.171 372.316 47.078 373.942 48.387C375.578 49.688 376.89 51.365 377.765 53.229Z" fill="#110647"/>
</svg>
