<svg width="446" height="424" viewBox="0 0 446 424" fill="none" xmlns="http://www.w3.org/2000/svg">
<path d="M139.614 26.0202C139.614 26.0202 63.8444 64.6302 26.0544 124.12C-11.7356 183.61 -8.74562 260.12 37.1744 316.9C83.0944 373.68 170.864 366.27 244.354 402.27C317.844 438.27 398.924 430.85 433.674 354.61C468.424 278.37 416.024 249.84 407.024 161.63C398.024 73.4202 318.494 -55.7298 139.614 26.0202Z" fill="#0B8FAC"/>
<path opacity="0.7" d="M139.614 26.0202C139.614 26.0202 63.8444 64.6302 26.0544 124.12C-11.7356 183.61 -8.74562 260.12 37.1744 316.9C83.0944 373.68 170.864 366.27 244.354 402.27C317.844 438.27 398.924 430.85 433.674 354.61C468.424 278.37 416.024 249.84 407.024 161.63C398.024 73.4202 318.494 -55.7298 139.614 26.0202Z" fill="white"/>
</svg>
