<svg width="398" height="369" viewBox="0 0 398 369" fill="none" xmlns="http://www.w3.org/2000/svg">
<path d="M34.6044 219.211C34.4503 219.211 34.3026 219.15 34.1936 219.041C34.0846 218.932 34.0234 218.784 34.0234 218.63V208.323C34.0264 208.17 34.0886 208.024 34.1969 207.916C34.3052 207.807 34.4513 207.745 34.6044 207.742C34.7585 207.742 34.9063 207.804 35.0153 207.913C35.1242 208.021 35.1854 208.169 35.1854 208.323V218.63C35.1854 218.784 35.1242 218.932 35.0153 219.041C34.9063 219.15 34.7585 219.211 34.6044 219.211Z" fill="#263238"/>
<path d="M39.7634 214.064H29.4565C29.3024 214.064 29.1546 214.002 29.0457 213.893C28.9367 213.785 28.8755 213.637 28.8755 213.483C28.8755 213.329 28.9367 213.181 29.0457 213.072C29.1546 212.963 29.3024 212.902 29.4565 212.902H39.7634C39.9175 212.902 40.0653 212.963 40.1743 213.072C40.2832 213.181 40.3444 213.329 40.3444 213.483C40.3415 213.636 40.2793 213.782 40.171 213.89C40.0626 213.999 39.9166 214.061 39.7634 214.064Z" fill="#263238"/>
<path d="M321.792 91.2635C321.638 91.2635 321.491 91.2023 321.382 91.0933C321.273 90.9844 321.211 90.8366 321.211 90.6825V80.3755C321.211 80.2214 321.273 80.0737 321.382 79.9647C321.491 79.8557 321.638 79.7945 321.792 79.7945C321.947 79.7945 322.094 79.8557 322.203 79.9647C322.312 80.0737 322.373 80.2214 322.373 80.3755V90.6825C322.373 90.8366 322.312 90.9844 322.203 91.0933C322.094 91.2023 321.947 91.2635 321.792 91.2635Z" fill="#263238"/>
<path d="M326.952 86.1042H316.645C316.491 86.1042 316.343 86.043 316.234 85.934C316.125 85.8251 316.064 85.6773 316.064 85.5232C316.064 85.3691 316.125 85.2213 316.234 85.1124C316.343 85.0034 316.491 84.9422 316.645 84.9422H326.952C327.105 84.9452 327.251 85.0073 327.359 85.1157C327.468 85.224 327.53 85.37 327.533 85.5232C327.533 85.6773 327.472 85.8251 327.363 85.934C327.254 86.043 327.106 86.1042 326.952 86.1042Z" fill="#263238"/>
<path d="M305.467 360.162C305.314 360.159 305.168 360.097 305.059 359.988C304.951 359.88 304.889 359.734 304.886 359.581V349.274C304.886 349.12 304.947 348.972 305.056 348.863C305.165 348.754 305.313 348.693 305.467 348.693C305.621 348.693 305.769 348.754 305.878 348.863C305.987 348.972 306.048 349.12 306.048 349.274V359.581C306.048 359.735 305.987 359.883 305.878 359.992C305.769 360.101 305.621 360.162 305.467 360.162Z" fill="#263238"/>
<path d="M310.626 355.037H300.319C300.165 355.037 300.017 354.976 299.908 354.867C299.799 354.758 299.738 354.611 299.738 354.456C299.738 354.302 299.799 354.155 299.908 354.046C300.017 353.937 300.165 353.875 300.319 353.875H310.626C310.78 353.875 310.928 353.937 311.037 354.046C311.146 354.155 311.207 354.302 311.207 354.456C311.207 354.611 311.146 354.758 311.037 354.867C310.928 354.976 310.78 355.037 310.626 355.037Z" fill="#263238"/>
<path d="M175.381 11.4689C175.227 11.4689 175.079 11.4077 174.97 11.2988C174.861 11.1898 174.8 11.042 174.8 10.8879V0.581C174.8 0.426909 174.861 0.279129 174.97 0.170171C175.079 0.0612119 175.227 0 175.381 0C175.535 0 175.683 0.0612119 175.792 0.170171C175.901 0.279129 175.962 0.426909 175.962 0.581V10.8879C175.962 11.042 175.901 11.1898 175.792 11.2988C175.683 11.4077 175.535 11.4689 175.381 11.4689Z" fill="#263238"/>
<path d="M180.54 6.32127H170.233C170.079 6.32127 169.931 6.26006 169.822 6.1511C169.713 6.04215 169.652 5.89437 169.652 5.74028C169.652 5.58618 169.713 5.4384 169.822 5.32945C169.931 5.22049 170.079 5.15928 170.233 5.15928H180.54C180.694 5.15928 180.842 5.22049 180.951 5.32945C181.06 5.4384 181.121 5.58618 181.121 5.74028C181.118 5.89343 181.056 6.03949 180.947 6.14782C180.839 6.25614 180.693 6.3183 180.54 6.32127Z" fill="#263238"/>
<path d="M5.72846 294.997C5.57437 294.997 5.42659 294.936 5.31763 294.827C5.20867 294.718 5.14746 294.57 5.14746 294.416V284.109C5.14746 283.955 5.20867 283.807 5.31763 283.698C5.42659 283.589 5.57437 283.528 5.72846 283.528C5.88255 283.528 6.03033 283.589 6.13929 283.698C6.24825 283.807 6.30946 283.955 6.30946 284.109V294.416C6.30946 294.57 6.24825 294.718 6.13929 294.827C6.03033 294.936 5.88255 294.997 5.72846 294.997Z" fill="#263238"/>
<path d="M10.8879 289.849H0.581C0.426909 289.849 0.279129 289.788 0.170171 289.679C0.0612119 289.57 0 289.422 0 289.268C0 289.114 0.0612119 288.966 0.170171 288.857C0.279129 288.748 0.426909 288.687 0.581 288.687H10.8879C11.042 288.687 11.1898 288.748 11.2988 288.857C11.4077 288.966 11.4689 289.114 11.4689 289.268C11.466 289.421 11.4038 289.567 11.2955 289.676C11.1872 289.784 11.0411 289.846 10.8879 289.849Z" fill="#263238"/>
<path d="M308.662 52.3249C306.862 52.3249 305.103 51.7912 303.607 50.7915C302.111 49.7917 300.945 48.3708 300.256 46.7082C299.567 45.0457 299.387 43.2163 299.738 41.4514C300.089 39.6864 300.956 38.0653 302.228 36.7928C303.501 35.5204 305.122 34.6538 306.887 34.3028C308.652 33.9517 310.481 34.1319 312.144 34.8205C313.806 35.5092 315.227 36.6753 316.227 38.1716C317.227 39.6678 317.76 41.4269 317.76 43.2264C317.757 45.6385 316.798 47.951 315.092 49.6566C313.387 51.3622 311.074 52.3218 308.662 52.3249ZM308.662 35.2899C307.092 35.2899 305.558 35.7554 304.253 36.6275C302.948 37.4995 301.93 38.739 301.33 40.1892C300.729 41.6394 300.572 43.2352 300.878 44.7747C301.184 46.3142 301.94 47.7284 303.05 48.8383C304.16 49.9483 305.574 50.7041 307.114 51.0104C308.653 51.3166 310.249 51.1594 311.699 50.5587C313.149 49.958 314.389 48.9408 315.261 47.6357C316.133 46.3305 316.598 44.7961 316.598 43.2264C316.595 41.1225 315.758 39.1056 314.27 37.6179C312.783 36.1302 310.766 35.293 308.662 35.2899Z" fill="#263238"/>
<path d="M15.3498 234.108C13.5498 234.11 11.7896 233.579 10.2918 232.58C8.79407 231.582 7.62609 230.162 6.93567 228.5C6.24524 226.837 6.06341 225.007 6.41316 223.242C6.76291 221.476 7.62854 219.854 8.90051 218.58C10.1725 217.307 11.7937 216.439 13.5589 216.087C15.3242 215.735 17.1542 215.914 18.8174 216.603C20.4806 217.291 21.9022 218.457 22.9025 219.954C23.9028 221.45 24.4367 223.21 24.4367 225.01C24.4336 227.42 23.4756 229.73 21.7725 231.436C20.0694 233.141 17.7599 234.102 15.3498 234.108ZM15.3498 217.073C13.7797 217.071 12.2441 217.534 10.9374 218.405C9.63074 219.276 8.61169 220.514 8.00922 221.964C7.40674 223.414 7.24791 225.011 7.55283 226.551C7.85775 228.091 8.6127 229.506 9.72217 230.617C10.8316 231.729 12.2458 232.486 13.7856 232.793C15.3254 233.1 16.9218 232.943 18.3727 232.343C19.8235 231.743 21.0637 230.726 21.9363 229.42C22.8089 228.115 23.2747 226.58 23.2747 225.01C23.2747 222.907 22.4401 220.89 20.9542 219.402C19.4684 217.914 17.4527 217.076 15.3498 217.073Z" fill="#263238"/>
<path d="M353.98 132.898C353.481 132.9 352.992 132.754 352.576 132.479C352.16 132.203 351.835 131.81 351.642 131.349C351.449 130.889 351.398 130.382 351.494 129.892C351.59 129.402 351.829 128.951 352.181 128.598C352.533 128.244 352.983 128.002 353.472 127.904C353.962 127.806 354.469 127.855 354.931 128.046C355.392 128.236 355.786 128.559 356.064 128.974C356.342 129.389 356.49 129.877 356.49 130.376C356.49 131.043 356.226 131.683 355.755 132.155C355.285 132.628 354.647 132.895 353.98 132.898ZM353.98 129.017C353.711 129.015 353.447 129.092 353.221 129.24C352.996 129.388 352.82 129.6 352.716 129.848C352.611 130.096 352.582 130.37 352.634 130.634C352.685 130.899 352.813 131.142 353.003 131.334C353.193 131.525 353.435 131.655 353.699 131.709C353.963 131.762 354.237 131.736 354.486 131.634C354.735 131.531 354.948 131.357 355.098 131.133C355.248 130.909 355.328 130.646 355.328 130.376C355.328 130.018 355.186 129.674 354.934 129.419C354.681 129.164 354.339 129.02 353.98 129.017Z" fill="#263238"/>
<path d="M288.141 368.586C287.641 368.589 287.152 368.442 286.736 368.166C286.319 367.89 285.994 367.496 285.802 367.035C285.61 366.574 285.559 366.066 285.656 365.576C285.753 365.086 285.993 364.635 286.346 364.282C286.7 363.929 287.15 363.688 287.64 363.591C288.131 363.494 288.639 363.545 289.1 363.738C289.561 363.93 289.955 364.255 290.231 364.671C290.507 365.088 290.653 365.577 290.651 366.077C290.648 366.741 290.382 367.378 289.912 367.848C289.442 368.318 288.806 368.583 288.141 368.586ZM288.141 364.717C287.872 364.715 287.608 364.792 287.383 364.94C287.157 365.088 286.981 365.3 286.877 365.548C286.772 365.796 286.743 366.07 286.795 366.335C286.846 366.599 286.974 366.842 287.164 367.034C287.354 367.225 287.596 367.356 287.86 367.409C288.124 367.462 288.398 367.436 288.647 367.334C288.896 367.231 289.109 367.057 289.259 366.833C289.409 366.609 289.489 366.346 289.489 366.077C289.489 365.718 289.347 365.374 289.095 365.119C288.842 364.865 288.5 364.72 288.141 364.717Z" fill="#263238"/>
<path d="M394.627 259.788C394.128 259.791 393.639 259.645 393.223 259.369C392.807 259.093 392.482 258.7 392.289 258.24C392.096 257.779 392.045 257.272 392.141 256.782C392.237 256.292 392.476 255.842 392.828 255.488C393.18 255.134 393.63 254.893 394.119 254.795C394.609 254.696 395.116 254.746 395.578 254.936C396.039 255.127 396.433 255.45 396.711 255.865C396.989 256.28 397.137 256.768 397.137 257.267C397.137 257.934 396.873 258.573 396.402 259.046C395.932 259.518 395.294 259.785 394.627 259.788ZM394.627 255.919C394.357 255.917 394.093 255.995 393.867 256.143C393.642 256.292 393.466 256.504 393.362 256.753C393.257 257.002 393.229 257.276 393.281 257.541C393.333 257.806 393.463 258.049 393.654 258.24C393.845 258.431 394.088 258.56 394.353 258.612C394.618 258.664 394.892 258.637 395.141 258.532C395.39 258.428 395.602 258.252 395.751 258.026C395.899 257.801 395.977 257.537 395.975 257.267C395.975 257.09 395.94 256.915 395.872 256.751C395.804 256.587 395.705 256.439 395.58 256.314C395.455 256.189 395.306 256.089 395.143 256.021C394.979 255.954 394.804 255.919 394.627 255.919Z" fill="#263238"/>
<path d="M287.363 231.412C286.864 231.412 286.377 231.264 285.962 230.987C285.547 230.71 285.224 230.316 285.033 229.856C284.842 229.395 284.792 228.888 284.89 228.399C284.987 227.91 285.227 227.46 285.58 227.108C285.932 226.755 286.382 226.515 286.871 226.418C287.36 226.32 287.867 226.37 288.328 226.561C288.789 226.752 289.182 227.075 289.459 227.49C289.737 227.905 289.884 228.392 289.884 228.891C289.884 229.222 289.819 229.55 289.692 229.856C289.566 230.162 289.38 230.44 289.146 230.674C288.912 230.908 288.634 231.094 288.328 231.22C288.022 231.347 287.694 231.412 287.363 231.412ZM287.363 227.543C287.093 227.543 286.83 227.623 286.606 227.773C286.383 227.923 286.208 228.136 286.106 228.385C286.003 228.634 285.977 228.908 286.03 229.172C286.084 229.436 286.214 229.678 286.406 229.868C286.597 230.058 286.84 230.186 287.105 230.237C287.369 230.288 287.643 230.26 287.891 230.155C288.139 230.05 288.351 229.874 288.499 229.649C288.647 229.424 288.725 229.16 288.722 228.891C288.719 228.532 288.575 228.189 288.32 227.937C288.065 227.684 287.721 227.543 287.363 227.543Z" fill="#263238"/>
<path d="M152.512 19.998C152.014 19.998 151.526 19.8501 151.111 19.5731C150.697 19.296 150.374 18.9022 150.183 18.4414C149.992 17.9807 149.942 17.4737 150.039 16.9846C150.136 16.4954 150.377 16.0461 150.729 15.6935C151.082 15.3408 151.531 15.1007 152.02 15.0034C152.509 14.9061 153.016 14.956 153.477 15.1469C153.938 15.3377 154.332 15.6609 154.609 16.0756C154.886 16.4903 155.034 16.9778 155.034 17.4765C155.034 18.1452 154.768 18.7866 154.295 19.2595C153.822 19.7324 153.181 19.998 152.512 19.998ZM152.512 16.1286C152.243 16.1286 151.98 16.2086 151.756 16.3585C151.532 16.5084 151.358 16.7214 151.255 16.9705C151.153 17.2196 151.126 17.4936 151.18 17.7576C151.233 18.0217 151.364 18.2639 151.555 18.4536C151.746 18.6432 151.99 18.7718 152.254 18.8229C152.519 18.8741 152.792 18.8455 153.041 18.7408C153.289 18.6361 153.5 18.46 153.648 18.2349C153.796 18.0098 153.874 17.7458 153.872 17.4765C153.869 17.1179 153.724 16.7751 153.47 16.5226C153.215 16.2702 152.871 16.1285 152.512 16.1286Z" fill="#263238"/>
</svg>
