<svg width="455" height="447" viewBox="0 0 455 447" fill="none" xmlns="http://www.w3.org/2000/svg">
<path d="M345.03 0.298149L315.78 14.9681C314.709 15.4235 313.795 16.184 313.153 17.1549C312.512 18.1259 312.17 19.2642 312.17 20.4282V34.1081C312.144 46.5445 315.771 58.7148 322.6 69.1082C327.87 77.1082 334.86 87.3981 346.49 93.2682H351.73C364.68 89.2682 374.34 78.7981 380.24 69.7981C387.069 59.4043 390.695 47.2344 390.67 34.7981V20.4282C390.67 19.2656 390.329 18.1286 389.689 17.1581C389.049 16.1875 388.139 15.4261 387.07 14.9681L353.75 0.768149C352.26 0.138149 346.51 -0.33185 345.03 0.298149Z" fill="#E0E0E0"/>
<path d="M343.85 0.76816L310.53 14.9682C309.459 15.4235 308.545 16.1841 307.903 17.155C307.261 18.1259 306.919 19.2642 306.92 20.4282V34.1082C306.921 46.7819 310.681 59.1706 317.725 69.7068C324.768 80.243 334.779 88.453 346.49 93.2982C359.43 89.2982 369.09 78.8282 375 69.8282C381.83 59.4238 385.456 47.2439 385.43 34.7982V20.4282C385.43 19.2642 385.088 18.1259 384.447 17.155C383.805 16.1841 382.891 15.4235 381.82 14.9682L348.5 0.76816C347.764 0.458752 346.973 0.299377 346.175 0.299377C345.376 0.299377 344.586 0.458752 343.85 0.76816Z" fill="#F5F5F5"/>
<path d="M385.32 31.0881C385.365 31.295 385.385 31.5065 385.38 31.7181C385.38 32.1881 385.43 32.7881 385.46 33.5281C385.49 34.2681 385.54 35.2781 385.46 36.3981C385.38 37.5181 385.46 38.7981 385.28 40.1981C385.1 41.5981 385.05 43.1981 384.76 44.7881C384.63 45.6081 384.53 46.4581 384.36 47.3281C384.19 48.1981 383.98 49.0781 383.79 49.9881C382.868 53.9363 381.579 57.7898 379.94 61.4981C378.256 65.1883 376.248 68.7221 373.94 72.0581C372.83 73.5581 371.8 75.0581 370.7 76.2481C370.16 76.8781 369.7 77.5181 369.15 78.0781L367.63 79.6881C366.68 80.6881 365.71 81.5681 364.9 82.3481C364.09 83.1281 363.35 83.7381 362.74 84.2281L361.43 85.3681C361.275 85.5104 361.103 85.6345 360.92 85.7381C361.053 85.5721 361.204 85.4212 361.37 85.2881L362.72 84.0781C363.31 83.5681 364.03 82.9281 364.81 82.0781C365.59 81.2281 366.55 80.4481 367.47 79.3881L368.96 77.7581C369.47 77.1981 369.96 76.5581 370.48 75.9281C371.56 74.6781 372.56 73.2281 373.65 71.7281C375.914 68.4073 377.888 64.8977 379.55 61.2381C381.17 57.5569 382.459 53.7385 383.4 49.8281L383.99 47.1881C384.17 46.3281 384.28 45.4781 384.42 44.6681C384.72 43.0481 384.84 41.5181 384.99 40.1181C385.14 38.7181 385.16 37.4581 385.24 36.3381C385.32 35.2181 385.31 34.2681 385.31 33.4781C385.31 32.6881 385.31 32.1381 385.31 31.6681C385.293 31.475 385.297 31.2806 385.32 31.0881Z" fill="#E0E0E0"/>
<path d="M343.69 60.8281L324.58 45.6381L329.88 38.9681L342.7 49.1581L361.42 28.2081L367.77 33.8881L343.69 60.8281Z" fill="white"/>
<path d="M433.97 75.1581H430.35V55.4681C430.35 53.2403 429.465 51.1037 427.89 49.5284C426.315 47.9531 424.178 47.0681 421.95 47.0681C419.722 47.0681 417.586 47.9531 416.01 49.5284C414.435 51.1037 413.55 53.2403 413.55 55.4681V75.1581H409.93V55.4681C409.93 52.2855 411.194 49.2333 413.445 46.9829C415.695 44.7324 418.748 43.4681 421.93 43.4681C425.113 43.4681 428.165 44.7324 430.415 46.9829C432.666 49.2333 433.93 52.2855 433.93 55.4681L433.97 75.1581Z" fill="#EBEBEB"/>
<path d="M435.06 61.7982H408.83C407.129 61.7982 405.75 63.1771 405.75 64.8782V84.1082C405.75 85.8092 407.129 87.1882 408.83 87.1882H435.06C436.761 87.1882 438.14 85.8092 438.14 84.1082V64.8782C438.14 63.1771 436.761 61.7982 435.06 61.7982Z" fill="#EBEBEB"/>
<path d="M424.43 75.1482C424.752 74.8212 425.006 74.4337 425.178 74.0081C425.349 73.5824 425.435 73.1271 425.43 72.6682C425.435 72.0028 425.253 71.3494 424.907 70.7815C424.56 70.2137 424.061 69.7541 423.467 69.4546C422.873 69.1551 422.207 69.0276 421.544 69.0865C420.881 69.1454 420.248 69.3884 419.716 69.788C419.184 70.1876 418.774 70.728 418.533 71.3481C418.292 71.9682 418.229 72.6434 418.351 73.2975C418.473 73.9516 418.775 74.5585 419.224 75.0499C419.673 75.5412 420.25 75.8974 420.89 76.0782L420.13 79.4582H423.52L422.84 76.0782C423.432 75.9091 423.97 75.5886 424.4 75.1482" fill="#FAFAFA"/>
<path d="M22.8598 362.538C18.976 360.108 14.5871 358.599 10.0298 358.128C7.92983 357.908 5.63983 357.968 3.95983 359.238C3.76478 359.35 3.60334 359.511 3.49248 359.707C3.38162 359.902 3.32543 360.124 3.32983 360.348C3.43227 360.665 3.6452 360.935 3.92983 361.108C6.65401 363.052 9.8583 364.213 13.1953 364.465C16.5323 364.717 19.8746 364.051 22.8598 362.538Z" fill="#E0E0E0"/>
<path d="M22.53 362.178C19.5595 359.994 16.7856 357.555 14.24 354.888C11.6892 352.201 9.8981 348.885 9.05003 345.278C8.88113 344.744 8.83032 344.179 8.90111 343.623C8.9719 343.067 9.1626 342.533 9.46003 342.058C16.06 347.218 21.25 353.898 22.53 362.178Z" fill="#E0E0E0"/>
<path d="M22.79 362.488C22.1814 358.879 22.2356 355.188 22.95 351.598C23.6844 347.979 25.7507 344.767 28.74 342.598C29.88 345.268 29.39 348.348 28.59 351.128C27.3466 355.448 25.4043 359.536 22.84 363.228" fill="#E0E0E0"/>
<path d="M29.2698 374.098C25.3829 374.727 21.7871 376.547 18.9798 379.308C16.0271 381.991 13.9709 385.517 13.0898 389.408C16.9498 389.168 20.2198 386.408 22.5898 383.408C24.9598 380.408 26.5898 377.018 29.2198 374.168" fill="#E0E0E0"/>
<path d="M30.6798 375.948C29.1317 372.02 28.5888 367.768 29.1005 363.576C29.6121 359.385 31.1621 355.388 33.6098 351.948C35.8498 359.948 35.0198 368.948 30.6798 375.948Z" fill="#E0E0E0"/>
<path d="M39.23 386.138C35.6362 385.92 32.0575 386.762 28.9378 388.559C25.818 390.357 23.2944 393.03 21.68 396.248C21.47 396.678 21.27 397.248 21.57 397.618C21.7204 397.766 21.9049 397.874 22.1073 397.934C22.3097 397.993 22.5236 398.001 22.73 397.958C26.19 397.738 29.25 395.658 31.78 393.288C34.31 390.918 36.52 388.178 39.31 386.128" fill="#E0E0E0"/>
<path d="M38.9602 385.598C37.1177 379.666 37.0032 373.333 38.6302 367.338C39.2802 364.988 40.3602 362.518 42.5302 361.418C42.6172 361.359 42.7154 361.319 42.8187 361.3C42.9219 361.281 43.028 361.284 43.1302 361.308C43.3057 361.402 43.4383 361.559 43.5002 361.748C44.2337 363.389 44.5498 365.186 44.4202 366.978C44.2919 368.768 44.0177 370.543 43.6002 372.288C42.9202 375.528 42.6002 379.008 40.7702 381.808C40.3524 382.482 39.9751 383.18 39.6402 383.898C39.3102 384.608 39.3102 384.898 39.0002 385.418" fill="#E0E0E0"/>
<path d="M61.6101 388.958C60.8487 385.625 60.8238 382.166 61.5372 378.822C62.2505 375.478 63.6848 372.33 65.7401 369.598C66.0301 369.208 66.4201 368.798 66.9101 368.838C67.6501 368.908 67.8401 369.898 67.8101 370.638C67.5034 377.203 65.3547 383.548 61.6101 388.948" fill="#E0E0E0"/>
<path d="M63.6499 390.358C67.6126 391.293 71.7311 391.357 75.721 390.546C79.7109 389.734 83.4772 388.067 86.7599 385.658C82.8933 383.714 78.4712 383.173 74.2499 384.128C70.0699 385.128 66.2499 386.948 63.6499 390.358Z" fill="#E0E0E0"/>
<path d="M65.3701 386.108C69.7201 379.028 78.0501 374.408 86.3701 373.978C85.3701 377.358 82.6401 379.978 79.5101 381.568C76.3015 383.008 72.9095 383.997 69.4301 384.508C68.0901 384.768 66.2501 385.058 65.4301 386.108" fill="#E0E0E0"/>
<path d="M62.0398 365.478C63.3589 361.489 64.2571 357.374 64.7198 353.198C65.1846 348.996 64.332 344.754 62.2798 341.058C58.2198 348.908 57.8098 358.058 61.9198 365.908" fill="#E0E0E0"/>
<path d="M75.7002 358.598C80.4502 349.978 90.1302 343.088 99.9202 342.118C96.1402 351.528 85.8402 358.798 75.7002 358.598Z" fill="#E0E0E0"/>
<path d="M72.7202 360.268C79.7902 361.348 85.8202 365.868 92.4302 368.608C93.8184 369.272 95.3551 369.565 96.8902 369.458C97.6034 369.449 98.2967 369.221 98.8766 368.806C99.4566 368.391 99.8954 367.808 100.134 367.136C100.373 366.464 100.399 365.734 100.211 365.047C100.023 364.359 99.628 363.745 99.0802 363.288C98.1446 362.412 97.0429 361.732 95.8402 361.288C88.6402 358.288 80.9102 358.218 73.3302 360.038" fill="#E0E0E0"/>
<path d="M68.6201 365.228C70.2201 365.688 70.7701 366.518 72.0401 367.598C76.3786 371.284 81.5133 373.913 87.0401 375.278C87.6101 375.418 88.3601 375.478 88.6501 374.968C88.9401 374.458 88.5801 373.968 88.2601 373.568C85.8666 370.752 82.7572 368.634 79.2601 367.438C75.8101 366.148 72.8201 364.598 68.7001 364.938" fill="#E0E0E0"/>
<path d="M64 335.258C66.9023 337.934 70.3323 339.972 74.0694 341.243C77.8066 342.514 81.7683 342.989 85.7 342.638C86.0652 342.65 86.4218 342.525 86.7 342.288C87.25 341.688 86.59 340.768 85.96 340.288C79.58 335.288 71.85 333.288 64.02 335.288" fill="#E0E0E0"/>
<path d="M69.48 333.248C73.321 330.423 77.7756 328.547 82.4801 327.772C87.1846 326.997 92.0057 327.345 96.55 328.788C93.0068 332.069 88.4632 334.062 83.65 334.448C78.8928 334.885 74.0959 334.479 69.48 333.248Z" fill="#E0E0E0"/>
<path d="M67.3 319.478C66.68 313.108 67.08 308.088 66.64 301.688C66.64 301.178 66.5 300.568 66.02 300.378C65.35 300.128 64.8 300.938 64.58 301.618C63.6519 304.583 63.4136 307.721 63.8833 310.792C64.3529 313.863 65.5182 316.786 67.29 319.338" fill="#E0E0E0"/>
<path d="M66.8398 320.178C71.0163 317.5 74.6165 314.015 77.4298 309.928C79.5098 307.078 81.2698 303.668 80.7998 300.168C79.3328 300.207 77.8919 300.565 76.5775 301.218C75.2632 301.871 74.1071 302.803 73.1898 303.948C71.3737 306.254 70.0528 308.909 69.3098 311.748C68.4698 314.548 67.8798 317.428 66.8798 320.178" fill="#E0E0E0"/>
<path d="M77.2101 317.298C86.7197 313.789 95.525 308.608 103.21 301.998C100.11 300.748 96.5601 301.498 93.4601 302.748C86.4225 305.414 80.6081 310.57 77.1201 317.238" fill="#E0E0E0"/>
<path d="M69.7598 323.668C74.5376 324.346 79.3856 324.37 84.1698 323.738C88.8398 322.958 93.2598 321.098 97.6198 319.268C98.0012 319.154 98.3282 318.905 98.5398 318.568C98.6056 318.365 98.6093 318.148 98.5505 317.943C98.4917 317.738 98.3731 317.555 98.2098 317.418C97.8721 317.154 97.479 316.969 97.0598 316.878C92.3098 315.558 87.1898 316.178 82.5198 317.748C78.0718 319.272 73.7953 321.256 69.7598 323.668Z" fill="#E0E0E0"/>
<path d="M42.4298 335.478C39.1598 328.878 39.4298 321.178 42.1998 314.378C44.1998 317.378 44.4298 321.258 44.0698 324.868C43.7098 328.478 42.6098 332.178 42.5298 335.798" fill="#E0E0E0"/>
<path d="M29.34 328.888C25.2481 328.834 21.19 329.634 17.4256 331.239C13.6613 332.844 10.2737 335.218 7.47998 338.208C11.6126 338.704 15.7983 337.93 19.48 335.988C23.1248 334.053 26.5626 331.751 29.74 329.118" fill="#E0E0E0"/>
<path d="M20.56 325.948C16.56 325.628 12.73 325.138 8.89 326.308C6.95255 326.854 5.15549 327.81 3.62133 329.113C2.08717 330.416 0.851995 332.035 0 333.858C3.76623 334.16 7.54444 333.445 10.94 331.788C14.3154 330.134 17.5351 328.18 20.56 325.948Z" fill="#E0E0E0"/>
<path d="M33.5602 326.088C29.9702 323.738 26.2802 321.338 22.1002 320.358C17.9202 319.378 13.1002 320.108 10.1602 323.258C13.5402 325.258 17.6502 325.478 21.5802 325.478C25.5102 325.478 30.3102 325.428 34.0102 326.738" fill="#E0E0E0"/>
<path d="M33.5798 326.278C27.4398 320.278 25.1198 309.418 27.5798 301.178C32.4248 308.598 34.5454 317.469 33.5798 326.278Z" fill="#E0E0E0"/>
<path d="M50.4302 309.198C51.5902 306.498 52.4302 303.678 53.4302 300.938C54.3769 298.158 55.8316 295.577 57.7202 293.328C59.6335 291.048 62.3668 289.611 65.3302 289.328C64.3836 293.482 62.5824 297.393 60.0412 300.812C57.4999 304.231 54.2745 307.084 50.5702 309.188" fill="#E0E0E0"/>
<path d="M47.4298 312.758C45.5198 310.118 43.2998 306.538 40.6998 304.568C38.0998 302.598 34.6998 301.408 31.5498 302.158C33.1925 305.036 35.4826 307.492 38.2389 309.332C40.9951 311.172 44.1418 312.345 47.4298 312.758Z" fill="#E0E0E0"/>
<path d="M48.0202 309.418C46.6591 306.27 45.6529 302.979 45.0202 299.608C44.3919 296.197 44.9345 292.673 46.5602 289.608C49.9302 295.978 51.0202 302.818 48.2302 309.468" fill="#E0E0E0"/>
<path d="M50.5 289.598C52.41 283.288 58.19 278.598 64.44 276.498C65.2118 276.181 66.0495 276.058 66.88 276.138C67.2951 276.181 67.688 276.347 68.0086 276.614C68.3292 276.881 68.563 277.238 68.68 277.638C68.91 278.708 68.02 279.638 67.18 280.388C62.3017 284.557 56.6267 287.69 50.5 289.598Z" fill="#E0E0E0"/>
<path d="M50.5702 284.468C50.8102 280.388 51.0602 276.258 52.3902 272.398C53.7202 268.538 56.2702 264.928 59.9802 263.238C60.6102 267.348 58.8002 271.438 56.6102 274.978C54.4202 278.518 51.7802 281.858 50.4702 285.808" fill="#E0E0E0"/>
<path d="M50.4298 287.268C48.8498 282.668 48.6898 276.818 45.9298 272.808C43.9998 270.008 40.9298 268.098 39.2598 265.128C38.2569 267.976 38.3967 271.101 39.6498 273.848C40.9035 276.565 42.6304 279.036 44.7498 281.148C46.7498 283.328 48.5298 284.968 50.4298 287.268Z" fill="#E0E0E0"/>
<path d="M50.5 422.818C50.38 422.818 50.27 392.118 50.26 354.248C50.25 316.378 50.35 285.668 50.47 285.668C50.59 285.668 50.7 316.358 50.71 354.248C50.72 392.138 50.62 422.818 50.5 422.818Z" fill="#E0E0E0"/>
<path d="M77.3301 330.838C76.9632 331.025 76.5778 331.172 76.1801 331.278L73.0001 332.348C70.3201 333.258 66.6401 334.578 62.6501 336.218C58.6601 337.858 54.9601 339.288 52.8401 341.128C51.9811 341.832 51.2966 342.726 50.8401 343.738C50.5301 344.458 50.4801 344.898 50.4401 344.898C50.4001 344.898 50.4401 344.778 50.4401 344.568C50.4909 344.265 50.5679 343.968 50.6701 343.678C51.0706 342.607 51.7303 341.652 52.5901 340.898C53.8728 339.814 55.3082 338.924 56.8501 338.258C58.5501 337.458 60.4401 336.628 62.4401 335.808C66.4401 334.168 70.1501 332.888 72.8601 332.048C74.2201 331.628 75.3201 331.318 76.0901 331.108C76.4941 330.979 76.9092 330.889 77.3301 330.838Z" fill="#E0E0E0"/>
<path d="M86.1298 309.238C86.0359 309.366 85.9249 309.48 85.7998 309.578L84.7998 310.508L81.1198 313.848L68.8798 324.748C64.0998 329.008 59.9698 333.068 57.1098 336.128C55.6698 337.658 54.5398 338.928 53.7698 339.808L52.8798 340.808C52.7869 340.934 52.6756 341.045 52.5498 341.138C52.6244 340.998 52.715 340.867 52.8198 340.748C52.9998 340.498 53.2698 340.128 53.6398 339.678C54.3698 338.758 55.4698 337.458 56.8798 335.898C60.5735 331.86 64.479 328.022 68.5798 324.398C73.3798 320.158 77.7398 316.338 80.9098 313.598C82.4698 312.258 83.7498 311.168 84.6798 310.358L85.6798 309.498C85.8172 309.391 85.9686 309.304 86.1298 309.238Z" fill="#E0E0E0"/>
<path d="M63.74 329.078C63.61 329.018 64.61 326.718 65.61 323.798C66.61 320.878 67.08 318.428 67.21 318.448C67.1063 320.329 66.7081 322.181 66.03 323.938C65.6005 325.184 65.1031 326.406 64.54 327.598C64.3391 328.124 64.0701 328.622 63.74 329.078Z" fill="#E0E0E0"/>
<path d="M50.5298 347.658C50.2495 347.406 50.001 347.12 49.7898 346.808L47.8998 344.388C46.3198 342.338 44.1298 339.508 41.6698 336.388C39.2098 333.268 36.9598 330.518 35.3198 328.508L33.4298 326.148C33.1767 325.868 32.9523 325.563 32.7598 325.238C33.0517 325.478 33.3196 325.746 33.5598 326.038C34.0498 326.568 34.7498 327.358 35.5598 328.338C37.2598 330.338 39.5598 333.038 42.0198 336.138C44.4798 339.238 46.6298 342.138 48.1498 344.198C48.9198 345.198 49.5198 346.108 49.9298 346.708C50.1616 347.004 50.3626 347.322 50.5298 347.658Z" fill="#E0E0E0"/>
<path d="M44.6401 340.108C43.4545 338.796 42.6097 337.213 42.1801 335.498C41.7123 333.992 41.5225 332.413 41.6201 330.838H41.8201C41.7928 331.029 41.7282 331.212 41.6301 331.378C41.6301 331.378 41.6301 331.168 41.6301 330.808H41.8301C41.9236 332.342 42.1851 333.861 42.6101 335.338C43.1709 336.975 43.8494 338.569 44.6401 340.108Z" fill="#E0E0E0"/>
<path d="M37.0502 330.598C36.5183 330.198 35.9409 329.863 35.3302 329.598C33.7824 329.131 32.1524 329.002 30.5502 329.218C28.9278 329.336 27.3185 329.594 25.7402 329.988C25.0844 330.19 24.4164 330.351 23.7402 330.468C24.3241 330.108 24.9623 329.845 25.6302 329.688C27.2135 329.198 28.8473 328.889 30.5002 328.768C32.159 328.548 33.8464 328.73 35.4202 329.298C36.0978 329.53 36.6739 329.989 37.0502 330.598Z" fill="#E0E0E0"/>
<path d="M35.2498 328.238C35.2498 328.308 34.2498 327.838 32.6098 327.238C28.3362 325.784 23.763 325.44 19.3198 326.238C17.6198 326.538 16.5998 326.858 16.5698 326.788C16.7849 326.65 17.0214 326.549 17.2698 326.488C17.9238 326.259 18.5919 326.072 19.2698 325.928C21.5044 325.438 23.7986 325.276 26.0798 325.448C28.357 325.626 30.5967 326.131 32.7298 326.948C33.374 327.195 34.0019 327.482 34.6098 327.808C34.844 327.918 35.0598 328.063 35.2498 328.238Z" fill="#E0E0E0"/>
<path d="M50.4298 318.448C49.6468 316.265 49.0055 314.034 48.5098 311.768C47.8638 309.54 47.3627 307.271 47.0098 304.978C47.7935 307.162 48.4381 309.393 48.9398 311.658C49.5799 313.888 50.0776 316.156 50.4298 318.448Z" fill="#E0E0E0"/>
<path d="M50.5898 318.448C49.9751 317.066 49.2633 315.73 48.4598 314.448C47.5593 313.235 46.5037 312.146 45.3198 311.208C45.7662 311.322 46.1802 311.538 46.5298 311.838C47.4211 312.486 48.1955 313.28 48.8198 314.188C49.7752 315.427 50.3859 316.897 50.5898 318.448Z" fill="#E0E0E0"/>
<path d="M50.4999 406.448C50.4999 406.448 50.3599 405.708 50.0099 404.448C49.5197 402.613 48.8498 400.831 48.0099 399.128C45.0532 393.574 41.3968 388.422 37.1299 383.798C34.6999 381.018 32.3399 378.398 30.3399 375.888C28.5396 373.685 26.9146 371.345 25.4799 368.888C24.515 367.229 23.6953 365.489 23.0299 363.688C22.7999 363.048 22.6399 362.548 22.5499 362.208C22.4914 362.036 22.4479 361.858 22.4199 361.678C22.4199 361.678 22.6799 362.378 23.1899 363.628C23.9165 365.389 24.7722 367.094 25.7499 368.728C27.2152 371.146 28.8528 373.455 30.6499 375.638C32.6499 378.118 35.0299 380.718 37.4599 383.498C41.7579 388.151 45.4045 393.365 48.2999 398.998C49.1357 400.727 49.7828 402.541 50.2299 404.408C50.3484 404.916 50.4385 405.43 50.4999 405.948C50.5153 406.114 50.5153 406.282 50.4999 406.448Z" fill="#E0E0E0"/>
<path d="M74.7502 379.068C74.3393 379.326 73.9154 379.563 73.4802 379.778C72.3279 380.422 71.2249 381.151 70.1802 381.958C68.6325 383.156 67.1844 384.477 65.8502 385.908C64.3302 387.508 62.7702 389.368 61.1702 391.368C57.9802 395.368 54.9902 398.928 53.1702 401.758C52.2602 403.158 51.6002 404.338 51.1702 405.168C50.9647 405.609 50.7309 406.037 50.4702 406.448C50.4702 406.448 50.4702 406.318 50.5902 406.088C50.7102 405.858 50.8102 405.518 51.0102 405.088C51.5777 403.886 52.219 402.721 52.9302 401.598C55.3593 397.952 57.9935 394.446 60.8202 391.098C62.4202 389.098 64.0102 387.238 65.5602 385.628C66.924 384.202 68.406 382.894 69.9902 381.718C71.0708 380.909 72.2221 380.2 73.4302 379.598C73.7545 379.432 74.0884 379.285 74.4302 379.158C74.6369 379.078 74.7435 379.048 74.7502 379.068Z" fill="#E0E0E0"/>
<path d="M75.22 387.948C74.3339 388.143 73.4349 388.273 72.53 388.338C70.3721 388.559 68.2396 388.981 66.16 389.598C64.1032 390.266 62.1755 391.281 60.46 392.598C59.15 393.598 58.53 394.448 58.46 394.408C58.39 394.368 58.56 394.158 58.85 393.788C59.2677 393.266 59.7367 392.787 60.25 392.358C61.9514 390.938 63.9104 389.858 66.02 389.178C68.1255 388.55 70.2966 388.167 72.49 388.038C73.3954 387.924 74.3092 387.894 75.22 387.948Z" fill="#E0E0E0"/>
<path d="M59.2499 393.418C59.1099 393.338 60.3199 391.488 61.2499 388.998C62.1799 386.508 62.3399 384.288 62.4899 384.318C62.5753 384.794 62.5753 385.282 62.4899 385.758C62.3535 386.916 62.092 388.056 61.7099 389.158C61.2986 390.246 60.7758 391.288 60.1499 392.268C59.9173 392.7 59.613 393.089 59.2499 393.418Z" fill="#E0E0E0"/>
<path d="M82.6001 355.208C82.4697 355.307 82.3246 355.384 82.1701 355.438L80.9101 356.008C80.3501 356.248 79.6801 356.548 78.9101 356.948C78.1401 357.348 77.2601 357.748 76.3401 358.298L74.8801 359.128C74.3701 359.428 73.8801 359.768 73.3301 360.128C72.2501 360.778 71.1701 361.588 70.0101 362.408C67.5591 364.268 65.2463 366.303 63.0901 368.498C60.974 370.718 59.0254 373.091 57.2601 375.598C56.4701 376.788 55.7001 377.898 55.0801 378.998C54.7701 379.538 54.4401 380.058 54.1601 380.578L53.4301 382.078C52.9101 383.018 52.5401 383.918 52.1701 384.688C51.8001 385.458 51.5201 386.138 51.3001 386.688C51.0801 387.238 50.9101 387.628 50.7701 387.968C50.7152 388.122 50.6448 388.269 50.5601 388.408C50.5791 388.246 50.623 388.087 50.6901 387.938L51.1401 386.628C51.3401 386.058 51.5901 385.358 51.9401 384.578C52.2901 383.798 52.6401 382.878 53.1501 381.928C53.3901 381.438 53.6501 380.928 53.9101 380.408C54.1701 379.888 54.5001 379.408 54.8201 378.808C55.4301 377.688 56.1901 376.568 56.9701 375.368C60.4801 370.236 64.8312 365.732 69.8401 362.048C71.0101 361.228 72.1101 360.428 73.2001 359.788C73.7501 359.458 74.2601 359.108 74.7701 358.788L76.2601 357.968C77.2001 357.438 78.1001 357.048 78.8701 356.678C79.5211 356.353 80.1886 356.063 80.8701 355.808L82.1701 355.308C82.3097 355.261 82.4538 355.227 82.6001 355.208Z" fill="#E0E0E0"/>
<path d="M63.4302 368.068C63.5886 367.452 63.9388 366.902 64.4302 366.498C65.6132 365.469 67.1223 364.891 68.6902 364.868C70.2229 364.861 71.742 365.157 73.1602 365.738C73.7591 365.931 74.3279 366.207 74.8502 366.558C74.2381 366.443 73.6386 366.269 73.0602 366.038C71.6577 365.553 70.1841 365.307 68.7002 365.308C67.229 365.34 65.8064 365.841 64.6402 366.738C64.2022 367.149 63.7976 367.593 63.4302 368.068Z" fill="#E0E0E0"/>
<path d="M60.54 371.028C61.1093 369.775 61.5159 368.454 61.75 367.098C61.831 365.726 61.7403 364.348 61.48 362.998C61.7373 363.335 61.9089 363.73 61.98 364.148C62.4972 366.125 62.2509 368.225 61.29 370.028C60.91 370.708 60.58 371.058 60.54 371.028Z" fill="#E0E0E0"/>
<path d="M29.29 410.848C29.95 422.588 33.49 434.518 38.93 446.588H62.58C67.77 434.638 71.06 422.728 71.64 410.848H29.29Z" fill="#E0E0E0"/>
<path d="M67.8098 429.838C67.8098 429.958 60.0198 430.058 50.4198 430.058C40.8198 430.058 33.0298 429.958 33.0298 429.838C33.0298 429.718 40.8098 429.598 50.4298 429.598C60.0498 429.598 67.8098 429.718 67.8098 429.838Z" fill="#FAFAFA"/>
<path d="M67.2799 434.088C67.2799 434.208 59.9799 434.308 50.9799 434.308C41.9799 434.308 34.6699 434.208 34.6699 434.088C34.6699 433.968 41.9699 433.868 50.9799 433.868C59.9899 433.868 67.2799 433.968 67.2799 434.088Z" fill="#FAFAFA"/>
<path d="M39.3098 418.598C39.6032 422.222 39.6032 425.864 39.3098 429.488C39.0165 425.864 39.0165 422.222 39.3098 418.598Z" fill="#FAFAFA"/>
<path d="M51.9798 418.598C52.2731 422.352 52.2731 426.124 51.9798 429.878C51.6864 426.124 51.6864 422.352 51.9798 418.598Z" fill="#FAFAFA"/>
<path d="M63.8802 418.458C64.1735 422.289 64.1735 426.137 63.8802 429.968C63.5868 426.137 63.5868 422.289 63.8802 418.458Z" fill="#FAFAFA"/>
<path d="M70.8898 418.598C70.8898 418.718 61.7598 418.818 50.4998 418.818C39.2398 418.818 30.0898 418.718 30.0898 418.598C30.0898 418.478 39.2298 418.378 50.4998 418.378C61.7698 418.378 70.8898 418.428 70.8898 418.598Z" fill="#FAFAFA"/>
<path d="M437.82 309.128C439.984 308.172 441.821 306.603 443.102 304.614C444.384 302.625 445.054 300.304 445.03 297.938C445.03 291.258 440.03 285.818 433.74 285.798C427.45 285.778 422.37 291.158 422.35 297.798C422.305 300.183 422.966 302.527 424.251 304.536C425.536 306.545 427.387 308.129 429.57 309.088C412.12 311.718 412.91 330.678 412.91 330.678L454.18 330.868C454.18 330.868 455.12 311.738 437.82 309.128Z" fill="#EBEBEB"/>
<path d="M252.3 33.4081C253.82 33.1096 255.221 32.3761 256.332 31.2969C257.443 30.2176 258.217 28.8388 258.56 27.3281C258.845 26.3587 258.929 25.3414 258.807 24.3384C258.686 23.3353 258.361 22.3676 257.854 21.4941C257.346 20.6206 256.665 19.8596 255.854 19.2577C255.043 18.6557 254.117 18.2253 253.134 17.9928C252.15 17.7602 251.13 17.7304 250.135 17.9051C249.14 18.0797 248.191 18.4553 247.345 19.0088C246.5 19.5623 245.777 20.2821 245.219 21.1244C244.661 21.9668 244.28 22.9139 244.1 23.9081C243.715 25.4243 243.79 27.0205 244.313 28.4946C244.836 29.9686 245.785 31.2541 247.04 32.1881C235.51 31.2781 233.22 43.4981 233.22 43.4981L259.52 49.7281C259.52 49.7281 262.96 37.5981 252.3 33.4081Z" fill="#EBEBEB"/>
<path d="M438.95 135.208C440.211 134.419 441.213 133.278 441.832 131.925C442.45 130.572 442.658 129.068 442.43 127.598C442.355 126.625 442.081 125.678 441.625 124.815C441.17 123.952 440.542 123.191 439.781 122.58C439.02 121.969 438.142 121.521 437.201 121.263C436.26 121.004 435.276 120.942 434.309 121.079C433.343 121.216 432.415 121.549 431.583 122.059C430.751 122.569 430.032 123.243 429.47 124.042C428.909 124.84 428.517 125.745 428.32 126.701C428.122 127.656 428.122 128.643 428.32 129.598C428.504 131.086 429.126 132.486 430.107 133.62C431.088 134.754 432.384 135.571 433.83 135.968C423.22 139.178 425.41 150.898 425.41 150.898L451.09 147.308C451.09 147.308 449.94 135.278 438.95 135.208Z" fill="#F5F5F5"/>
<path d="M26.91 138.838L13.04 127.808L16.88 122.968L26.19 130.358L39.77 115.168L44.38 119.288L26.91 138.838Z" fill="#F5F5F5"/>
</svg>
