<svg width="500" height="341" viewBox="0 0 500 341" fill="none" xmlns="http://www.w3.org/2000/svg">
<path d="M500 327.4H0V327.65H500V327.4Z" fill="#E0E0E0"/>
<path d="M379.33 336.62H344.93V336.87H379.33V336.62Z" fill="#E0E0E0"/>
<path d="M419.8 335.91H400.44V336.16H419.8V335.91Z" fill="#E0E0E0"/>
<path d="M247.34 336.5H221.66V336.75H247.34V336.5Z" fill="#E0E0E0"/>
<path d="M265.89 340.05H248.35V340.3H265.89V340.05Z" fill="#E0E0E0"/>
<path d="M144.67 333.97H91.6802V334.22H144.67V333.97Z" fill="#E0E0E0"/>
<path d="M237 282.8H43.91C42.3973 282.797 40.9475 282.195 39.8788 281.124C38.8102 280.053 38.21 278.603 38.21 277.09V5.66C38.2231 4.15602 38.8292 2.71798 39.8964 1.65822C40.9637 0.598458 42.4059 0.00257639 43.91 0H237C238.514 0 239.967 0.601588 241.038 1.67242C242.108 2.74325 242.71 4.19561 242.71 5.71V277.09C242.71 278.604 242.108 280.057 241.038 281.128C239.967 282.198 238.514 282.8 237 282.8ZM43.91 0.200001C42.4636 0.20265 41.0774 0.779065 40.0556 1.80273C39.0338 2.82639 38.46 4.21365 38.46 5.66V277.09C38.46 278.536 39.0338 279.924 40.0556 280.947C41.0774 281.971 42.4636 282.547 43.91 282.55H237C238.447 282.547 239.834 281.971 240.858 280.948C241.881 279.924 242.457 278.537 242.46 277.09V5.66C242.457 4.21273 241.881 2.82549 240.858 1.80212C239.834 0.77874 238.447 0.202644 237 0.200001H43.91Z" fill="#E0E0E0"/>
<path d="M453.31 282.8H260.21C258.696 282.797 257.246 282.195 256.175 281.125C255.105 280.054 254.503 278.604 254.5 277.09V5.66C254.516 4.15511 255.124 2.71708 256.193 1.65759C257.262 0.598109 258.705 0.00254829 260.21 0H453.31C454.812 0.0052045 456.252 0.602249 457.317 1.66173C458.382 2.72121 458.987 4.15775 459 5.66V277.09C459 278.601 458.401 280.05 457.335 281.121C456.268 282.191 454.821 282.795 453.31 282.8ZM260.21 0.200001C258.763 0.202644 257.375 0.77874 256.352 1.80212C255.329 2.82549 254.753 4.21273 254.75 5.66V277.09C254.753 278.537 255.329 279.924 256.352 280.948C257.375 281.971 258.763 282.547 260.21 282.55H453.31C454.757 282.547 456.145 281.971 457.168 280.948C458.191 279.924 458.767 278.537 458.77 277.09V5.66C458.767 4.21273 458.191 2.82549 457.168 1.80212C456.145 0.77874 454.757 0.202644 453.31 0.200001H260.21Z" fill="#E0E0E0"/>
<path d="M434.03 24.27H283.33V153.83H434.03V24.27Z" fill="#E0E0E0"/>
<path d="M437.38 24.27H286.68V153.83H437.38V24.27Z" fill="#F0F0F0"/>
<path d="M431.37 147.75V30.3501L292.69 30.3501V147.75H431.37Z" fill="#FAFAFA"/>
<path d="M387.05 147.75V30.3501H377.99V147.75H387.05Z" fill="#E0E0E0"/>
<path d="M339.39 147.75V30.3501H330.33V147.75H339.39Z" fill="#E0E0E0"/>
<path d="M390.24 151.6V25.8201H381.18V151.6H390.24Z" fill="#F0F0F0"/>
<path d="M342.57 151.61V25.8301H333.51V151.61H342.57Z" fill="#F0F0F0"/>
<path d="M431.37 147.74V30.3401H428.84V147.74H431.37Z" fill="#E0E0E0"/>
<path d="M177.34 126.59C177.34 126.59 159 95.0001 184.45 69.8101C184.45 69.8101 191.09 74.1401 190.99 79.9601C190.89 85.7801 183.87 87.2501 185.38 92.1101C186.89 96.9701 193.5 101.72 189.16 105.74C184.82 109.76 189.86 113.32 189.57 118.24C189.28 123.16 177.34 126.59 177.34 126.59Z" fill="#E0E0E0"/>
<path d="M180.22 131.76C180.22 131.76 187.66 95.98 155.58 80.12C155.58 80.12 150.64 86.32 152.58 91.81C154.52 97.3 161.63 96.48 161.73 101.57C161.83 106.66 157.06 113.26 162.44 115.7C167.82 118.14 164.17 123.12 166 127.7C167.83 132.28 180.22 131.76 180.22 131.76Z" fill="#E6E6E6"/>
<path d="M163.89 122.67C163.89 122.67 164.21 153.56 176.56 153.56C188.91 153.56 189.22 122.67 189.22 122.67H163.89Z" fill="#F0F0F0"/>
<path d="M89.6899 141.94C89.6899 141.94 90.3799 153.56 116.75 153.56C143.12 153.56 143.82 141.94 143.82 141.94H89.6899Z" fill="#E6E6E6"/>
<path d="M367.7 212H353.78C352.046 212 350.64 213.406 350.64 215.14V238.16C350.64 239.894 352.046 241.3 353.78 241.3H367.7C369.434 241.3 370.84 239.894 370.84 238.16V215.14C370.84 213.406 369.434 212 367.7 212Z" fill="#F0F0F0"/>
<path d="M404.62 221.58H395.25C394.085 221.58 393.14 222.525 393.14 223.69V239.19C393.14 240.355 394.085 241.3 395.25 241.3H404.62C405.785 241.3 406.73 240.355 406.73 239.19V223.69C406.73 222.525 405.785 221.58 404.62 221.58Z" fill="#E6E6E6"/>
<path d="M406.02 219.67H393.85C393.458 219.67 393.14 219.988 393.14 220.38V221.18C393.14 221.572 393.458 221.89 393.85 221.89H406.02C406.412 221.89 406.73 221.572 406.73 221.18V220.38C406.73 219.988 406.412 219.67 406.02 219.67Z" fill="#F0F0F0"/>
<path d="M318.42 225C318.42 225 318.92 241.3 338.01 241.3C357.1 241.3 357.61 225 357.61 225H318.42Z" fill="#E6E6E6"/>
<path d="M270.94 203.47H299.83V197.77H270.94V203.47Z" fill="#E0E0E0"/>
<path d="M443.46 197.78H299.83V203.48H443.46V197.78Z" fill="#F0F0F0"/>
<path d="M270.94 247H299.83V241.3H270.94V247Z" fill="#E0E0E0"/>
<path d="M443.46 241.3H299.83V247H443.46V241.3Z" fill="#F0F0F0"/>
<path d="M281.35 203.47H276.02V327.39H281.35V203.47Z" fill="#E0E0E0"/>
<path d="M305.16 203.47H299.83V327.39H305.16V203.47Z" fill="#F0F0F0"/>
<path d="M424.98 203.47H419.65V327.39H424.98V203.47Z" fill="#E0E0E0"/>
<path d="M443.46 203.47H438.13V327.39H443.46V203.47Z" fill="#F0F0F0"/>
<path d="M89.6901 160.81H62.3701V319.9H89.6901V160.81Z" fill="#E6E6E6"/>
<path d="M202.34 319.89H67.6201V327.4H202.34V319.89Z" fill="#E6E6E6"/>
<path d="M89.6901 319.89H207.58L207.58 160.8L89.6901 160.8L89.6901 319.89Z" fill="#F0F0F0"/>
<path d="M100.43 259.78H196.84V220.92H100.43V259.78Z" fill="#E6E6E6"/>
<path d="M100.43 305.72H196.84V266.86H100.43V305.72Z" fill="#E6E6E6"/>
<path d="M159.46 225.18H137.81C137.105 225.177 136.43 224.896 135.932 224.398C135.434 223.9 135.153 223.225 135.15 222.52C135.15 221.814 135.43 221.136 135.928 220.636C136.427 220.135 137.104 219.853 137.81 219.85H159.46C160.166 219.853 160.843 220.135 161.341 220.636C161.84 221.136 162.12 221.814 162.12 222.52C162.117 223.225 161.836 223.9 161.338 224.398C160.84 224.896 160.165 225.177 159.46 225.18Z" fill="#F0F0F0"/>
<path d="M100.43 213.83H196.84V174.97H100.43V213.83Z" fill="#E6E6E6"/>
<path d="M159.46 179.24H137.81C137.104 179.237 136.427 178.955 135.928 178.454C135.43 177.954 135.15 177.276 135.15 176.57C135.153 175.865 135.434 175.19 135.932 174.692C136.43 174.194 137.105 173.913 137.81 173.91H159.46C160.165 173.913 160.84 174.194 161.338 174.692C161.836 175.19 162.117 175.865 162.12 176.57C162.12 177.276 161.84 177.954 161.341 178.454C160.843 178.955 160.166 179.237 159.46 179.24Z" fill="#F0F0F0"/>
<path d="M159.46 271.12H137.81C137.105 271.117 136.43 270.836 135.932 270.338C135.434 269.84 135.153 269.165 135.15 268.46C135.15 267.754 135.43 267.076 135.928 266.576C136.427 266.075 137.104 265.793 137.81 265.79H159.46C160.166 265.793 160.843 266.075 161.341 266.576C161.84 267.076 162.12 267.754 162.12 268.46C162.117 269.165 161.836 269.84 161.338 270.338C160.84 270.836 160.165 271.117 159.46 271.12Z" fill="#F0F0F0"/>
<path d="M211.22 153.56H89.6899V160.81H211.22V153.56Z" fill="#E6E6E6"/>
<path d="M58.5499 160.8H89.6899V153.55H58.5499V160.8Z" fill="#E0E0E0"/>
<path d="M120.14 30.3501H75.9399V78.8901H120.14V30.3501Z" fill="#E6E6E6"/>
<path d="M124.93 30.3501H79.27V78.8901H124.93V30.3501Z" fill="#F0F0F0"/>
<path d="M121.1 75.0599V34.1699H83.0901V75.0599H121.1Z" fill="#FAFAFA"/>
<path d="M111.89 65.1501V44.0801H92.3101V65.1501H111.89Z" fill="#F0F0F0"/>
<path d="M166.74 16.02H133.22V52.03H166.74V16.02Z" fill="#E6E6E6"/>
<path d="M170.3 16.02H136.43V52.03H170.3V16.02Z" fill="#F0F0F0"/>
<path d="M167.46 49.1901V18.8601H139.27V49.1901H167.46Z" fill="#FAFAFA"/>
<path d="M153.36 26.3501L145.65 39.7101H161.07L153.36 26.3501Z" fill="#F0F0F0"/>
</svg>
